<?xml version="1.0" encoding="utf-8"?>
<!-- Generator: Adobe Illustrator 25.2.3, SVG Export Plug-In . SVG Version: 6.00 Build 0)  -->
<svg version="1.1" id="Capa_1" xmlns="http://www.w3.org/2000/svg" xmlns:xlink="http://www.w3.org/1999/xlink" x="0px" y="0px"
	 viewBox="0 0 599.5 505.4" style="enable-background:new 0 0 599.5 505.4;" xml:space="preserve">
<style type="text/css">
	.st0{fill:#343434;}
	.st1{fill:#F9B122;}
	.st2{fill:#FFFFFF;}
	.st3{fill:#1D1D1B;}
</style>
<rect x="-0.3" y="-0.1" class="st1" width="600.2" height="505.6"/>
<g>
	<circle class="st2" cx="299.8" cy="252.7" r="169.4"/>
	<path class="st1" d="M426.3,205.6l-24.6,24.6c1.6,7.3,2.5,14.8,2.5,22.5c0,57.6-46.8,104.4-104.4,104.4c-7.7,0-15.3-0.9-22.5-2.5
		c-13.7-3-26.3-8.7-37.4-16.5c-0.8-0.5-1.5-1.1-2.2-1.6l35.9-35.9c7.8,4.3,16.7,6.7,26.3,6.7c30.2,0,54.6-24.4,54.6-54.6
		c0-9.5-2.4-18.4-6.7-26.2l57.9-57.5c-7.2-9-15.4-17.1-24.6-24.1c-9.9-7.5-20.9-13.6-32.6-18.2c-15.1-5.8-31.4-9-48.5-9
		c-74.4,0-135,60.6-135,135c0,17.1,3.2,33.5,9,48.5l24.4-24.4c-1.8-7.8-2.8-15.8-2.8-24.1c0-57.6,46.8-104.4,104.4-104.4
		c8.3,0,16.4,1,24.1,2.8c12.8,3,24.6,8.4,35.1,15.7c1,0.7,2,1.4,2.9,2.1L326,204.8c-7.8-4.3-16.7-6.7-26.3-6.7
		c-30.2,0-54.6,24.4-54.6,54.6c0,9.5,2.4,18.5,6.7,26.3L216,314.9c0,0-0.1-0.1-0.1-0.2l-21.8,21.8c7,8.8,15,16.6,23.9,23.5
		c10.5,8,22.1,14.5,34.7,19.2c14.7,5.5,30.5,8.5,47.1,8.5c74.4,0,135-60.6,135-135C434.8,236.1,431.8,220.3,426.3,205.6z"/>
</g>
</svg>
