<?xml version="1.0" encoding="utf-8"?>
<!-- Generator: Adobe Illustrator 25.2.3, SVG Export Plug-In . SVG Version: 6.00 Build 0)  -->
<svg version="1.1" id="Capa_1" xmlns="http://www.w3.org/2000/svg" xmlns:xlink="http://www.w3.org/1999/xlink" x="0px" y="0px"
	 viewBox="0 0 41.5 14.4" style="enable-background:new 0 0 41.5 14.4;" xml:space="preserve">
<g>
	<path d="M6.5,1.9L6.5,1.9L6.5,1.9z"/>
	<path d="M35.9,0.6L35.7,1c0,0.1-0.1,0.1-0.2,0.1h-6.8c0.1-0.1,0.1-0.2,0.2-0.4c0,0,0.2-0.4,0.7-0.4h6.2c0.1,0,0.2,0,0.2,0.1
		c0,0,0,0,0,0.1C35.9,0.5,35.9,0.6,35.9,0.6 M35,1.4l-0.2,0.4c0,0.1-0.1,0.2-0.2,0.2c-0.1,0-0.4,0-0.5,0l-5.8-0.4
		c0.1-0.1,0.1-0.2,0.2-0.3L35,1.4C35.1,1.3,35.1,1.3,35,1.4 M34.1,2.3c0,0-0.2,0.4-0.3,0.5c0,0-0.1,0.1-0.3,0.1L28,2.1
		c0.1-0.1,0.1-0.2,0.2-0.3l5.9,0.4C34.1,2.2,34.1,2.2,34.1,2.3C34.1,2.2,34.1,2.2,34.1,2.3 M32.2,3.3c-0.2,0.1-0.6,0-0.8,0
		c0,0-2.6-0.5-3.8-0.8c0.1-0.1,0.2-0.2,0.2-0.3L33.4,3L32.2,3.3z M30.3,3.9c-0.3,0.1-0.6,0-0.6,0l0,0l0,0l-2.5-0.8
		c0.1-0.1,0.2-0.3,0.4-0.4l3.9,0.8c0,0,0.1,0,0.2,0L30.3,3.9z M28.3,4.5c-0.2,0.1-0.4-0.1-0.5-0.1c0,0-0.7-0.3-1.4-0.6
		c0.2-0.2,0.4-0.4,0.6-0.5L29.6,4c0,0,0.1,0,0.1,0L28.3,4.5z M27.9,4.9c-0.1,0.2-0.2,0.4-0.7,0.6c-0.2,0.1-0.5-0.1-0.5-0.1
		s-0.6-0.4-1.3-0.9c0.3-0.2,0.5-0.4,0.8-0.6l1.5,0.7c0,0,0.2,0.1,0.3,0.1C28,4.8,27.9,4.9,27.9,4.9 M25.9,5.9l-0.2,0.1
		c-0.2,0-0.4-0.1-0.4-0.2c0,0-0.3-0.3-0.8-0.8c0.3-0.1,0.5-0.3,0.8-0.4l1.4,1c0,0,0.1,0.1,0.2,0.1C26.5,5.7,25.9,5.9,25.9,5.9
		 M24.1,6.3c-0.1,0-0.3-0.2-0.4-0.3l-0.4-0.7c0.3-0.1,0.7-0.2,1-0.4l0.8,0.8c0,0,0.1,0.1,0.2,0.2L24.1,6.3z M22.7,6.7
		c-0.1,0-0.2,0-0.2,0c-0.1-0.1-0.2-0.3-0.2-0.3l-0.2-0.8c0.4-0.1,0.7-0.1,1.1-0.2l0.4,0.7c0,0,0.1,0.2,0.2,0.3L22.7,6.7z M21.9,6.5
		c0,0-0.6-0.5-0.8-0.7c0.3,0,0.5,0,0.8-0.1l0.2,0.8c0,0,0.1,0.2,0.2,0.3C22.1,6.7,22.1,6.6,21.9,6.5 M20.9,5.5V3.2h0.4l0.6,2.3
		C21.5,5.5,21.2,5.5,20.9,5.5 M19.7,5.5l0.6-2.3h0.4v2.3C20.3,5.5,20,5.5,19.7,5.5 M19.5,6.6c-0.1,0.1-0.2,0.1-0.3,0.1
		c0.1-0.1,0.2-0.3,0.2-0.3l0.2-0.8c0.3,0,0.5,0.1,0.8,0.1C20.2,5.9,19.5,6.6,19.5,6.6 M19.2,6.4c0,0-0.1,0.2-0.2,0.3
		c-0.1,0-0.2,0.1-0.2,0l-1.1-0.3c0.1-0.1,0.2-0.3,0.2-0.3c0,0,0.2-0.3,0.4-0.7c0.4,0.1,0.7,0.2,1.1,0.2L19.2,6.4z M17.4,6.3L16.2,6
		c0.1-0.1,0.2-0.2,0.2-0.2s0.4-0.4,0.8-0.8c0.3,0.1,0.6,0.2,1,0.4L17.8,6C17.8,6.1,17.6,6.4,17.4,6.3 M15.9,5.9l-1.1-0.3
		c0.1-0.1,0.2-0.1,0.2-0.1c0,0,0.6-0.5,1.4-1c0.3,0.2,0.5,0.3,0.8,0.4l-0.8,0.8C16.2,5.8,16,6,15.9,5.9 M14.3,5.5
		c-0.5-0.2-0.6-0.4-0.7-0.6c0,0,0-0.1-0.1-0.2c0.2,0,0.3-0.1,0.3-0.1c0,0,0.7-0.3,1.5-0.7c0.3,0.2,0.5,0.4,0.8,0.6l-1.3,0.9
		C14.8,5.3,14.5,5.6,14.3,5.5 M13.2,4.5c-0.1,0-0.7-0.2-1.4-0.4c0.1,0,0.1,0,0.1,0c0,0,2.1-0.7,2.6-0.8c0.2,0.2,0.4,0.4,0.6,0.5
		l-1.4,0.6C13.7,4.4,13.4,4.5,13.2,4.5 M11.2,3.9c-0.4-0.1-0.9-0.3-1.3-0.4c0.1,0,0.2,0,0.2,0c0,0,2.8-0.6,3.9-0.8
		c0.1,0.1,0.2,0.3,0.4,0.4l-2.5,0.8C11.9,3.9,11.5,4,11.2,3.9 M9.4,3.3C8.8,3.2,8.3,3.1,8.1,3l5.5-0.7c0.1,0.1,0.2,0.2,0.2,0.3
		l-3.8,0.8C10,3.3,9.6,3.4,9.4,3.3 M8,2.8c-0.2,0-0.3,0-0.3-0.1L7.5,2.3c0,0,0-0.1-0.1-0.1c0,0,5.9-0.4,5.9-0.4
		c0.1,0.1,0.1,0.2,0.2,0.3L8,2.8z M7,2C6.8,1.9,6.8,1.8,6.7,1.8C6.6,1.6,6.5,1.4,6.4,1.3H13c0.1,0.1,0.1,0.2,0.2,0.3L7.4,2
		C7.4,2,7.1,2,7,2 M6.1,1.1C6,1.1,5.9,1.1,5.9,1c0,0-0.2-0.3-0.2-0.4c0-0.1-0.1-0.1,0-0.1c0-0.1,0.1-0.1,0.2-0.2H12
		c0.4,0,0.7,0.4,0.7,0.4c0.1,0.1,0.1,0.2,0.2,0.4L6.1,1.1L6.1,1.1z M18.3,0.3c0.3,0,0.5,0.1,0.7,0.2c0.1,0.1,0.2,0.3,0.2,0.5
		c0,0,0,0,0,0.1h-6.1c-0.1-0.2-0.2-0.4-0.2-0.4c0,0-0.1-0.2-0.3-0.4L18.3,0.3L18.3,0.3z M27.1,1.5V1.3h1.2c-0.1,0.1-0.1,0.2-0.2,0.3
		L27.1,1.5z M27.1,2V1.7L28,1.8c-0.1,0.1-0.1,0.2-0.2,0.3L27.1,2z M27.1,2.4V2.1l0.5,0.1c-0.1,0.1-0.2,0.2-0.2,0.3
		C27.3,2.5,27.2,2.4,27.1,2.4 M27.1,2.6l0.2,0c-0.1,0.1-0.1,0.1-0.2,0.2V2.6z M25.3,3.2h1.5c-0.2,0.2-0.5,0.4-0.5,0.5
		C25.9,3.5,25.5,3.3,25.3,3.2 M23.7,3.2h1.1l1.2,0.6c-0.3,0.2-0.5,0.4-0.8,0.5C24.7,3.9,24.1,3.4,23.7,3.2 M22.8,3.2h0.6l1.7,1.2
		c-0.2,0.1-0.5,0.3-0.8,0.4C23.8,4.2,23.1,3.5,22.8,3.2 M22.1,3.2h0.5l1.6,1.7c-0.3,0.1-0.6,0.2-0.9,0.3L22.1,3.2z M21.8,3.2L23,5.3
		c-0.3,0.1-0.7,0.2-1,0.2l-0.6-2.2H21.8z M19.7,3.2h0.4l-0.6,2.2c-0.4-0.1-0.7-0.1-1-0.2C18.9,4.5,19.5,3.5,19.7,3.2 M19,3.2h0.5
		l-1.2,2C18,5.1,17.7,5,17.4,4.9C18,4.2,18.8,3.4,19,3.2 M18.1,3.2h0.6l-1.5,1.6c-0.3-0.1-0.5-0.2-0.8-0.4
		C17.2,3.9,17.9,3.3,18.1,3.2 M15.3,3.7c0,0-0.4-0.3-0.5-0.5h1.5L15.3,3.7z M16.7,3.2h1.1l-1.6,1.1C16,4.2,15.7,4,15.5,3.8
		C16.1,3.5,16.6,3.3,16.7,3.2 M14.4,2.6v0.2c-0.1-0.1-0.1-0.1-0.2-0.2C14.3,2.6,14.4,2.6,14.4,2.6 M14.4,2.1v0.3l-0.3,0.1
		C14,2.4,14,2.3,13.9,2.2L14.4,2.1z M14.4,1.7V2l-0.7,0.1c-0.1-0.1-0.1-0.2-0.2-0.3L14.4,1.7z M14.4,1.5l-1,0.1
		c-0.1-0.1-0.1-0.2-0.2-0.3h1.2L14.4,1.5L14.4,1.5z M14.6,3L14.6,3V1.3h12.3V3l0,0H14.6z M22.3,1.1c0-0.2,0.1-0.4,0.2-0.5
		c0.2-0.2,0.4-0.2,0.7-0.2H29c-0.2,0.1-0.3,0.3-0.3,0.4c-0.1,0.1-0.1,0.3-0.2,0.4L22.3,1.1C22.3,1.1,22.3,1.1,22.3,1.1 M36.1,0.3
		c-0.1-0.2-0.3-0.2-0.4-0.2H23.3c-0.4,0-0.6,0.1-0.8,0.3c-0.2,0.2-0.3,0.4-0.3,0.6c0,0,0,0.1-0.1,0.1h-2.5c-0.1,0-0.1-0.1-0.1-0.1
		c-0.1-0.2-0.2-0.4-0.3-0.6c-0.2-0.2-0.5-0.3-0.8-0.3H5.8c-0.1,0-0.3,0-0.4,0.2c-0.1,0.1-0.1,0.2,0,0.4l0.2,0.4
		c0.1,0.2,0.2,0.2,0.4,0.2c0,0,0.1,0,0.2,0.1l0.2,0.4C6.6,2,6.7,2.2,7.1,2.2c0,0,0.1,0,0.2,0.1l0.3,0.5C7.6,3,7.8,3.1,8,3.2l5.2,1.5
		c0.2,0.1,0.2,0.2,0.2,0.2c0.1,0.3,0.3,0.6,1.1,0.8l4.3,1.2c0.1,0,0.5,0.2,0.9-0.2l1-0.9c0,0,0,0,0.1,0c0.1,0,0.1,0,0.1,0l1,0.9
		c0.4,0.4,0.9,0.2,0.9,0.2l4.3-1.2c0.8-0.2,1-0.5,1.1-0.8c0,0,0.1-0.2,0.2-0.2c0,0,0.8-0.2,5.2-1.5C33.8,3.1,33.9,3,34,2.9l0.3-0.5
		c0.1-0.1,0.2-0.1,0.2-0.1c0.4-0.1,0.5-0.3,0.6-0.4l0.2-0.4c0.1-0.1,0.2-0.1,0.2-0.1c0.2,0,0.3-0.1,0.4-0.2l0.2-0.4
		c0.1-0.1,0.1-0.2,0.1-0.3C36.1,0.4,36.1,0.4,36.1,0.3"/>
	<path d="M15.2,2.2c0,0,0.1-0.4,0.2-0.4c0,0,0.2,0.4,0.2,0.4H15.2z M15.4,1.6L15.4,1.6l-0.6,1.2H15v0c0-0.1,0.1-0.3,0.2-0.4
		c0,0,0,0,0,0h0.4c0.1,0.1,0.1,0.3,0.2,0.4v0h0.2L15.4,1.6z"/>
	<path d="M16,2.7L16,2.7c0.1,0.1,0.2,0.1,0.3,0.1c0.2,0,0.4-0.2,0.4-0.4c0-0.2-0.1-0.2-0.3-0.3C16.3,2,16.2,2,16.2,1.8
		c0-0.1,0.1-0.2,0.2-0.2c0.1,0,0.2,0.1,0.2,0.1v0h0l0.1-0.1l0,0c-0.1-0.1-0.2-0.1-0.2-0.1c-0.2,0-0.4,0.1-0.4,0.3
		c0,0.2,0.2,0.3,0.3,0.3c0.1,0.1,0.2,0.1,0.2,0.2c0,0.1-0.1,0.2-0.2,0.2c-0.1,0-0.2-0.1-0.3-0.2l0,0h0L16,2.7z"/>
	<path d="M17.6,1.6h-0.9v0.1h0c0.1,0,0.2,0,0.4,0v1.1h0.2V1.7c0.1,0,0.2,0,0.3,0h0L17.6,1.6L17.6,1.6z"/>
	<path d="M18.5,2.6c-0.1,0.1-0.2,0.1-0.3,0.1c-0.3,0-0.4-0.2-0.4-0.5c0-0.3,0.2-0.5,0.5-0.5c0.1,0,0.3,0.1,0.3,0.2
		c0.1,0.1,0.1,0.2,0.1,0.4c0,0,0,0,0,0C18.7,2.3,18.6,2.5,18.5,2.6 M18.2,1.6c-0.4,0-0.6,0.2-0.6,0.6s0.2,0.6,0.6,0.6
		c0.4,0,0.6-0.2,0.6-0.6C18.9,1.8,18.5,1.6,18.2,1.6"/>
	<path d="M20,1.6h-0.1v0.9l0,0c0,0-0.8-0.9-0.8-0.9H19v1.2h0.1V1.9l0,0c0,0,0.7,0.8,0.7,0.8L20,2.8l0,0H20L20,1.6L20,1.6z"/>
	<path d="M21.9,1.6L21.9,1.6l-0.3,0.5c0,0-0.2,0.3-0.2,0.4c-0.2-0.3-0.3-0.6-0.5-0.9l0,0h-0.1v0c0,0.2-0.1,0.9-0.2,1.1v0h0.1v0
		c0-0.2,0-0.4,0.1-0.7c0,0,0-0.1,0-0.2c0,0,0.2,0.5,0.3,0.6l0.1,0.2h0l0,0c0.1-0.2,0.2-0.5,0.4-0.8c0,0.2,0.1,0.6,0.1,0.8v0H22v0
		C22,2.5,21.9,2.1,21.9,1.6L21.9,1.6L21.9,1.6z"/>
	<path d="M22.4,2.2c0,0,0.1-0.4,0.2-0.4c0,0,0.2,0.4,0.2,0.4H22.4z M22.7,1.6L22.7,1.6L22.7,1.6l-0.6,1.2h0.1v0
		c0-0.1,0.1-0.3,0.2-0.4c0,0,0,0,0,0h0.4c0.1,0.1,0.1,0.3,0.2,0.4v0h0.2L22.7,1.6z"/>
	<path d="M23.4,2.1V1.7c0.1,0,0.2,0,0.2,0c0.1,0,0.2,0.1,0.2,0.2c0,0.1-0.1,0.2-0.2,0.2C23.6,2.1,23.5,2.1,23.4,2.1 M23.7,2.2
		C23.9,2.1,24,2,24,1.9c0-0.2-0.1-0.3-0.4-0.3h-0.4h0v1.2h0.2V2.2h0.1c0,0,0.1,0.2,0.1,0.2l0.2,0.3l0.1,0.1l0,0h0.2
		C24.1,2.8,23.7,2.2,23.7,2.2"/>
	<path d="M25,1.6h-0.9v0.1h0c0.1,0,0.2,0,0.4,0v1.1h0.2V1.7c0.1,0,0.2,0,0.3,0h0L25,1.6L25,1.6z"/>
	<rect x="25.1" y="1.6" width="0.2" height="1.2"/>
	<path d="M26.4,1.6v0.9l0,0c0,0-0.8-0.9-0.8-0.9h-0.1v1.2h0.1V1.9l0,0c0,0,0.7,0.8,0.7,0.8l0.1,0.1h0.1V1.6H26.4z"/>
	<path d="M3.2,12.7c0.1,0,0.2,0,0.3,0c0.1,0,0.2,0,0.3,0s0.2,0,0.3,0c0.1,0,0.2,0,0.3,0l-0.5-1.2L3.2,12.7z M5.3,14.2
		c0,0-0.1,0-0.1,0H5.1H4.9c0,0-0.1,0-0.1,0c0-0.1-0.1-0.2-0.1-0.3c0-0.1-0.1-0.2-0.1-0.3c-0.1-0.1-0.1-0.2-0.1-0.3
		c-0.1-0.1-0.1-0.2-0.1-0.3c-0.1,0-0.2,0-0.3,0c-0.1,0-0.2,0-0.3,0c-0.1,0-0.2,0-0.3,0c-0.1,0-0.2,0-0.3,0c-0.1,0.2-0.2,0.5-0.3,0.7
		c-0.1,0.2-0.1,0.4-0.2,0.6c-0.1,0-0.1,0-0.2,0s-0.1,0-0.2,0c0.3-0.6,0.5-1.1,0.8-1.6c0.2-0.5,0.5-1.1,0.7-1.7h0.1
		c0.1,0.2,0.2,0.4,0.2,0.6c0.1,0.2,0.2,0.4,0.3,0.6s0.2,0.4,0.3,0.6C4.8,13,4.9,13.2,5,13.4c0.1,0.2,0.2,0.4,0.2,0.5
		C5.2,14,5.3,14.1,5.3,14.2"/>
	<path d="M5.9,13.8c0,0.1,0.1,0.1,0.2,0.2C6.1,14,6.2,14,6.3,14c0.1,0,0.2,0,0.3,0c0.1,0,0.2,0,0.3-0.1c0.1,0,0.2-0.1,0.2-0.1
		c0.1-0.1,0.1-0.1,0.1-0.2c0-0.1,0.1-0.2,0.1-0.3c0-0.1,0-0.3-0.1-0.4S7,12.9,6.8,12.8c-0.1-0.1-0.2-0.1-0.4-0.2
		c-0.1-0.1-0.2-0.1-0.4-0.2c-0.1-0.1-0.2-0.2-0.3-0.3c-0.1-0.1-0.1-0.3-0.1-0.4c0-0.1,0-0.3,0.1-0.4c0.1-0.1,0.1-0.2,0.2-0.3
		S6.2,11,6.3,11s0.3-0.1,0.4-0.1s0.3,0,0.4,0.1c0.1,0,0.2,0.1,0.3,0.2c0,0.1-0.1,0.1-0.1,0.2c0,0.1,0,0.1-0.1,0.2H7.3
		c0,0,0-0.1-0.1-0.1s-0.1-0.1-0.1-0.1c-0.1,0-0.1-0.1-0.2-0.1c-0.1,0-0.1,0-0.2,0s-0.2,0-0.2,0c-0.1,0-0.1,0.1-0.2,0.1
		s-0.1,0.1-0.1,0.2c0,0.1,0,0.2,0,0.2c0,0.1,0,0.3,0.1,0.4c0.1,0.1,0.2,0.2,0.3,0.2c0.1,0.1,0.2,0.1,0.4,0.2
		c0.1,0.1,0.2,0.1,0.4,0.2c0.1,0.1,0.2,0.2,0.3,0.3c0.1,0.1,0.1,0.2,0.1,0.4c0,0.1,0,0.3-0.1,0.4c-0.1,0.1-0.1,0.2-0.2,0.3
		S7.1,14.1,7,14.2c-0.1,0.1-0.3,0.1-0.5,0.1c-0.2,0-0.4,0-0.5-0.1c-0.1-0.1-0.2-0.1-0.3-0.2c0-0.1,0.1-0.1,0.1-0.2
		c0-0.1,0-0.1,0-0.2h0.1C5.8,13.7,5.9,13.7,5.9,13.8"/>
	<path d="M9,11.2c-0.1,0-0.2,0-0.3,0s-0.2,0-0.3,0c-0.1,0-0.2,0-0.3,0s-0.2,0-0.2,0c0-0.1,0-0.1,0-0.2c0,0,0-0.1,0-0.1
		c0.2,0,0.4,0,0.6,0s0.4,0,0.6,0s0.4,0,0.6,0c0.2,0,0.4,0,0.6,0c0,0.1,0,0.1,0,0.2c0,0,0,0.1,0,0.1c-0.1,0-0.1,0-0.2,0
		c-0.1,0-0.2,0-0.3,0s-0.2,0-0.3,0s-0.2,0-0.3,0c0,0.3,0,0.6,0,1V13c0,0.2,0,0.4,0,0.6c0,0.2,0,0.4,0,0.6c-0.1,0-0.2,0-0.2,0
		c-0.1,0-0.2,0-0.2,0c0-0.2,0-0.4,0-0.6c0-0.2,0-0.4,0-0.6v-0.8C9,11.9,9,11.5,9,11.2"/>
	<path d="M13.6,11.9c-0.1-0.2-0.2-0.4-0.3-0.5s-0.3-0.2-0.4-0.3c-0.2-0.1-0.3-0.1-0.5-0.1s-0.4,0-0.5,0.1c-0.2,0.1-0.3,0.2-0.4,0.3
		c-0.1,0.1-0.2,0.3-0.3,0.5c-0.1,0.2-0.1,0.4-0.1,0.7c0,0.3,0,0.5,0.1,0.7c0.1,0.2,0.2,0.4,0.3,0.5c0.1,0.1,0.3,0.2,0.4,0.3
		c0.2,0.1,0.3,0.1,0.5,0.1s0.4,0,0.5-0.1c0.2-0.1,0.3-0.2,0.4-0.3c0.1-0.1,0.2-0.3,0.3-0.5c0.1-0.2,0.1-0.4,0.1-0.7
		C13.7,12.3,13.6,12.1,13.6,11.9 M10.7,11.9c0.1-0.2,0.2-0.4,0.4-0.5c0.2-0.1,0.4-0.3,0.6-0.3c0.2-0.1,0.5-0.1,0.7-0.1
		s0.5,0,0.7,0.1s0.4,0.2,0.6,0.3c0.2,0.1,0.3,0.3,0.4,0.5c0.1,0.2,0.1,0.5,0.1,0.7c0,0.3,0,0.5-0.1,0.7c-0.1,0.2-0.2,0.4-0.4,0.5
		c-0.2,0.1-0.4,0.3-0.6,0.3c-0.2,0.1-0.5,0.1-0.7,0.1c-0.3,0-0.5,0-0.7-0.1c-0.2-0.1-0.4-0.2-0.6-0.3c-0.2-0.1-0.3-0.3-0.4-0.5
		c-0.1-0.2-0.1-0.5-0.1-0.7S10.6,12.1,10.7,11.9"/>
	<path d="M16.4,13c-0.4-0.4-0.8-0.9-1.2-1.3c0,0.1,0,0.2,0,0.4c0,0.1,0,0.4,0,0.6c0,0.1,0,0.2,0,0.2c0,0.1,0,0.2,0,0.3
		c0,0.1,0,0.2,0,0.3c0,0.1,0,0.2,0,0.3c0,0.1,0,0.2,0,0.2c0,0.1,0,0.1,0,0.1c-0.1,0-0.1,0-0.2,0s-0.1,0-0.2,0c0,0,0-0.1,0-0.2
		c0-0.1,0-0.2,0-0.3c0-0.1,0-0.2,0-0.4c0-0.1,0-0.3,0-0.4c0-0.1,0-0.3,0-0.4s0-0.2,0-0.4c0-0.3,0-0.6,0-0.8c0-0.2,0-0.4,0-0.5H15
		c0.2,0.2,0.4,0.4,0.6,0.7c0.2,0.2,0.4,0.5,0.7,0.7c0.2,0.2,0.4,0.5,0.6,0.7s0.4,0.4,0.5,0.5v-0.6c0-0.3,0-0.7,0-1
		c0-0.3,0-0.6,0-0.9c0.1,0,0.1,0,0.2,0s0.1,0,0.2,0c0,0.1,0,0.2,0,0.3c0,0.1,0,0.3,0,0.4s0,0.3,0,0.5c0,0.2,0,0.3,0,0.4v0.3
		c0,0.1,0,0.2,0,0.3s0,0.2,0,0.4c0,0.1,0,0.2,0,0.3c0,0.1,0,0.2,0,0.3v0.2h-0.1C17.2,13.9,16.8,13.4,16.4,13"/>
	<path d="M21.7,12.2c0.2,0.4,0.5,0.9,0.7,1.3c0-0.1,0.1-0.1,0.1-0.3c0.1-0.1,0.1-0.2,0.2-0.4c0.1-0.1,0.2-0.3,0.3-0.5
		c0.1-0.2,0.2-0.3,0.3-0.5c0.1-0.2,0.2-0.4,0.3-0.5c0.1-0.2,0.2-0.3,0.3-0.5h0.1c0,0.3,0.1,0.6,0.1,0.9s0.1,0.6,0.1,0.8
		c0,0.3,0.1,0.5,0.1,0.8c0,0.3,0.1,0.5,0.1,0.8c0,0-0.1,0-0.1,0H24h-0.1c0,0-0.1,0-0.1,0c0-0.4-0.1-0.8-0.1-1.2
		c0-0.4-0.1-0.8-0.1-1.2h0c-0.2,0.4-0.4,0.8-0.6,1.2c-0.2,0.4-0.4,0.8-0.6,1.2h0c-0.2-0.4-0.4-0.8-0.6-1.2c-0.2-0.4-0.4-0.8-0.6-1.2
		h0c0,0.2-0.1,0.4-0.1,0.6c0,0.2-0.1,0.5-0.1,0.7s0,0.4-0.1,0.6c0,0.2,0,0.4,0,0.5c-0.1,0-0.1,0-0.2,0s-0.1,0-0.2,0
		c0-0.3,0.1-0.5,0.1-0.8c0-0.3,0.1-0.6,0.1-0.9c0-0.3,0.1-0.6,0.1-0.9c0-0.3,0.1-0.5,0.1-0.8H21C21.2,11.3,21.4,11.8,21.7,12.2"/>
	<path d="M25.7,12.7c0.1,0,0.2,0,0.3,0c0.1,0,0.2,0,0.3,0c0.1,0,0.2,0,0.3,0c0.1,0,0.2,0,0.3,0l-0.5-1.2L25.7,12.7z M27.9,14.2
		c0,0-0.1,0-0.1,0h-0.1h-0.1c0,0-0.1,0-0.1,0c0-0.1-0.1-0.2-0.1-0.3c0-0.1-0.1-0.2-0.1-0.3c-0.1-0.1-0.1-0.2-0.1-0.3
		c-0.1-0.1-0.1-0.2-0.1-0.3c-0.1,0-0.2,0-0.3,0c-0.1,0-0.2,0-0.3,0c-0.1,0-0.2,0-0.3,0c-0.1,0-0.2,0-0.3,0c-0.1,0.2-0.2,0.5-0.3,0.7
		c-0.1,0.2-0.1,0.4-0.2,0.6c-0.1,0-0.1,0-0.2,0s-0.1,0-0.2,0c0.3-0.6,0.5-1.1,0.8-1.6c0.2-0.5,0.5-1.1,0.7-1.7h0.1
		c0.1,0.2,0.2,0.4,0.2,0.6c0.1,0.2,0.2,0.4,0.3,0.6s0.2,0.4,0.3,0.6c0.1,0.2,0.2,0.4,0.3,0.6s0.2,0.4,0.2,0.5
		C27.8,14,27.8,14.1,27.9,14.2"/>
	<path d="M29.2,12.5c0.1,0,0.1,0,0.2,0c0.1,0,0.2,0,0.3,0c0.1,0,0.2-0.1,0.3-0.1c0.1-0.1,0.2-0.1,0.2-0.2s0.1-0.2,0.1-0.4
		c0-0.1,0-0.2-0.1-0.3c-0.1-0.1-0.1-0.1-0.2-0.2c-0.1-0.1-0.2-0.1-0.2-0.1c-0.1,0-0.2,0-0.2,0c-0.1,0-0.2,0-0.3,0
		c-0.1,0-0.1,0-0.2,0c0,0.2,0,0.4,0,0.5s0,0.3,0,0.5v0.3C29.1,12.5,29.2,12.5,29.2,12.5 M28.7,11.6c0-0.2,0-0.4,0-0.6
		c0.1,0,0.2,0,0.3,0c0.1,0,0.2,0,0.3,0s0.2,0,0.3,0c0.1,0,0.2,0,0.3,0c0.1,0,0.3,0,0.4,0s0.2,0.1,0.3,0.1c0.1,0.1,0.2,0.1,0.2,0.2
		c0.1,0.1,0.1,0.2,0.1,0.4c0,0.2,0,0.3-0.1,0.4c-0.1,0.1-0.2,0.2-0.2,0.3c-0.1,0.1-0.2,0.1-0.3,0.2c-0.1,0-0.2,0.1-0.3,0.1
		c0,0.1,0.1,0.1,0.2,0.2c0.1,0.1,0.1,0.2,0.2,0.3c0.1,0.1,0.2,0.2,0.3,0.3c0.1,0.1,0.2,0.2,0.3,0.3c0.1,0.1,0.2,0.2,0.2,0.3
		c0.1,0.1,0.1,0.2,0.2,0.2c-0.1,0-0.1,0-0.1,0h-0.1h-0.1c-0.1,0-0.1,0-0.1,0c-0.1-0.1-0.1-0.2-0.2-0.3c-0.1-0.1-0.2-0.3-0.3-0.4
		s-0.2-0.3-0.4-0.5c-0.1-0.2-0.2-0.3-0.3-0.4h-0.2V13c0,0.2,0,0.4,0,0.6c0,0.2,0,0.4,0,0.6c-0.1,0-0.2,0-0.2,0s-0.2,0-0.2,0
		c0-0.2,0-0.4,0-0.6c0-0.2,0-0.4,0-0.6v-0.8C28.7,12,28.7,11.8,28.7,11.6"/>
	<path d="M32.5,11.2c-0.1,0-0.2,0-0.3,0c-0.1,0-0.2,0-0.3,0c-0.1,0-0.2,0-0.3,0s-0.2,0-0.2,0c0-0.1,0-0.1,0-0.2c0,0,0-0.1,0-0.1
		c0.2,0,0.4,0,0.6,0c0.2,0,0.4,0,0.6,0c0.2,0,0.4,0,0.6,0c0.2,0,0.4,0,0.6,0c0,0.1,0,0.1,0,0.2c0,0,0,0.1,0,0.1c-0.1,0-0.1,0-0.2,0
		c-0.1,0-0.2,0-0.3,0c-0.1,0-0.2,0-0.3,0s-0.2,0-0.3,0c0,0.3,0,0.6,0,1V13c0,0.2,0,0.4,0,0.6c0,0.2,0,0.4,0,0.6c-0.1,0-0.2,0-0.2,0
		c-0.1,0-0.2,0-0.2,0c0-0.2,0-0.4,0-0.6c0-0.2,0-0.4,0-0.6v-0.8C32.5,11.9,32.5,11.5,32.5,11.2"/>
	<path d="M34.8,11.6c0-0.2,0-0.4,0-0.6c0,0,0.1,0,0.1,0c0,0,0.1,0,0.1,0c0,0,0.1,0,0.1,0c0,0,0.1,0,0.1,0c0,0.2,0,0.4,0,0.6
		c0,0.2,0,0.4,0,0.6V13c0,0.2,0,0.4,0,0.6c0,0.2,0,0.4,0,0.6c-0.1,0-0.2,0-0.2,0c-0.1,0-0.2,0-0.2,0c0-0.2,0-0.4,0-0.6s0-0.4,0-0.6
		v-0.8C34.8,12,34.8,11.8,34.8,11.6"/>
	<path d="M37.9,13c-0.4-0.4-0.8-0.9-1.2-1.3c0,0.1,0,0.2,0,0.4c0,0.1,0,0.4,0,0.6c0,0.1,0,0.2,0,0.2c0,0.1,0,0.2,0,0.3
		c0,0.1,0,0.2,0,0.3c0,0.1,0,0.2,0,0.3c0,0.1,0,0.2,0,0.2c0,0.1,0,0.1,0,0.1c-0.1,0-0.1,0-0.2,0s-0.1,0-0.2,0c0,0,0-0.1,0-0.2
		c0-0.1,0-0.2,0-0.3c0-0.1,0-0.2,0-0.4s0-0.3,0-0.4c0-0.1,0-0.3,0-0.4s0-0.2,0-0.4c0-0.3,0-0.6,0-0.8c0-0.2,0-0.4,0-0.5h0.1
		c0.2,0.2,0.4,0.4,0.6,0.7c0.2,0.2,0.4,0.5,0.7,0.7s0.4,0.5,0.6,0.7c0.2,0.2,0.4,0.4,0.5,0.5v-0.6c0-0.3,0-0.7,0-1
		c0-0.3,0-0.6,0-0.9c0.1,0,0.1,0,0.2,0s0.1,0,0.2,0c0,0.1,0,0.2,0,0.3c0,0.1,0,0.3,0,0.4c0,0.2,0,0.3,0,0.5c0,0.2,0,0.3,0,0.4v0.3
		c0,0.1,0,0.2,0,0.3s0,0.2,0,0.4c0,0.1,0,0.2,0,0.3c0,0.1,0,0.2,0,0.3v0.2h-0.1C38.7,13.9,38.3,13.4,37.9,13"/>
</g>
</svg>
