<svg xmlns="http://www.w3.org/2000/svg" viewBox="0 0 31.17 10.79"><defs><style>.cls-1{fill-rule:evenodd;}</style></defs><g id="Capa_2" data-name="Capa 2"><g id="Capa_1-2" data-name="Capa 1"><path class="cls-1" d="M29.2,1.24A5.25,5.25,0,0,0,26,0,5.69,5.69,0,0,0,22.4,1.23,5.39,5.39,0,0,0,19,0a5.19,5.19,0,0,0-3.44,1.21,5.4,5.4,0,0,0-6.81,0A5.31,5.31,0,0,0,5.24,0,5.25,5.25,0,0,0,1.62,1.53,5.6,5.6,0,0,0,0,5.52a5.38,5.38,0,0,0,8.77,4,5.11,5.11,0,0,0,3.39,1.21,5.5,5.5,0,0,0,3.41-1.21A5.22,5.22,0,0,0,19,10.78a5.49,5.49,0,0,0,3.36-1.22,5.18,5.18,0,0,0,3.43,1.23A5.39,5.39,0,0,0,29.2,1.24ZM7.59,8.2A3.58,3.58,0,0,1,5.42,9,3.62,3.62,0,0,1,1.79,5.5,3.65,3.65,0,0,1,5.24,1.79a4.08,4.08,0,0,1,2.36.77,5.67,5.67,0,0,0-.79,3A5.18,5.18,0,0,0,7.59,8.2ZM8.77,6.52a3.76,3.76,0,0,1-.18-1.2,3.71,3.71,0,0,1,.18-1.09A3.56,3.56,0,0,1,9,5.35,3.34,3.34,0,0,1,8.77,6.52ZM14.4,8.21A3.47,3.47,0,0,1,12.35,9,3.77,3.77,0,0,1,10,8.2a5.09,5.09,0,0,0,.8-2.59,5.69,5.69,0,0,0-.79-3,3.52,3.52,0,0,1,2.2-.78,3.88,3.88,0,0,1,2.25.78,5.45,5.45,0,0,0-.8,2.69A5.56,5.56,0,0,0,14.4,8.21Zm1.17-1.68a3.06,3.06,0,0,1-.17-1.16,3.85,3.85,0,0,1,.17-1.12,3,3,0,0,1,.2,1.12A3.87,3.87,0,0,1,15.57,6.53Zm5.64,1.68A3.46,3.46,0,0,1,19.13,9a3.88,3.88,0,0,1-2.39-.77,5.14,5.14,0,0,0,.81-2.69,5.44,5.44,0,0,0-.79-2.94,3.6,3.6,0,0,1,4.46,0,5.55,5.55,0,0,0-.8,2.9A5.34,5.34,0,0,0,21.21,8.21Zm1.17-1.68a4,4,0,0,1-.18-1.18,3.67,3.67,0,0,1,.19-1.09,3.78,3.78,0,0,1,.18,1.1A3.59,3.59,0,0,1,22.38,6.53ZM25.81,9a3.68,3.68,0,0,1-2.23-.78,6.22,6.22,0,0,0,.79-2.84,5.63,5.63,0,0,0-.79-2.8A3.59,3.59,0,1,1,25.81,9Z"/></g></g></svg>