<?xml version="1.0" encoding="utf-8"?>
<!-- Generator: Adobe Illustrator 25.2.3, SVG Export Plug-In . SVG Version: 6.00 Build 0)  -->
<svg version="1.1" id="Capa_1" xmlns="http://www.w3.org/2000/svg" xmlns:xlink="http://www.w3.org/1999/xlink" x="0px" y="0px"
	 viewBox="0 0 41.5 14.4" style="enable-background:new 0 0 41.5 14.4;" xml:space="preserve">
<style type="text/css">
	.st0{fill:#FFFFFF;}
</style>
<path d="M21.3,13.7c0.2,0.4,0.9,0.3,1-0.1c0.3,0.4,0.9,0.2,1-0.2c0.3,0.3,0.8,0.2,0.9-0.2c0,0,0,0,0,0c2-0.8,3.5-2.3,4-4.1
	c0.1-0.1,0.2-0.1,0.3-0.2c0.6,0.1,1.3,0.4,1.6-0.3c0.5,0.1,1.7,0.5,2-0.4c0.8,0.1,2,0.2,2.1-0.7c0.7,0,1.9-0.1,1.9-0.9
	c0.7,0,1.9-0.5,1.7-1c0.6-0.1,1.5-0.7,1.5-1.2c0.6-0.2,1.3-0.7,1.2-1.3c0.4-0.2,1-0.5,1-0.8s-0.3-0.7-0.6-0.7s-1.6,0.1-2,0.1
	c-0.4,0-5.7-0.1-7,0c-1.2,0.1-2.8,0.1-3.6,0c-0.6-0.1-2.5-0.2-3.6,0.1c-2.4-1.2-5.5-1.2-7.9,0c-1.2-0.3-3.1-0.2-3.6-0.1
	c-0.8,0.1-2.3,0-3.6,0c-1.2-0.1-6.5,0-7,0s-1.7-0.1-2-0.1S0,1.9,0,2.3c0,0.4,0.6,0.6,1,0.8C0.8,3.8,1.5,4.2,2.1,4.4
	c0,0.4,0.8,1.1,1.5,1.2c-0.1,0.5,1.1,1,1.7,1c0,0.8,1.2,0.9,1.9,0.9c0.1,0.8,1.3,0.8,2.1,0.7c0.3,0.9,1.5,0.5,2,0.4
	C11.6,9.3,12.3,9,13,8.8C13,8.9,13.2,9,13.3,9.1c0.6,1.8,2,3.3,4,4.1c0,0,0,0,0,0c0.1,0.4,0.7,0.5,0.9,0.2c0.1,0.4,0.7,0.6,1,0.2
	c0.1,0.4,0.8,0.6,1,0.1C20.3,14.1,21.2,14.1,21.3,13.7L21.3,13.7z"/>
<path class="st0" d="M14.5,9c0.2,0.5,0.9,0.4,1.3,0.2c0.5,0.8,1.4,1.5,2.5,1.9l-0.9,1.5c-1.7-0.7-3-2-3.5-3.5
	C14.1,9.1,14.3,9.1,14.5,9L14.5,9z"/>
<path class="st0" d="M17.3,13c-1.9-0.8-3.3-2.2-3.8-3.9c0.1,0,0.2,0,0.3,0c0.6,1.5,1.9,2.8,3.6,3.6C17.3,12.8,17.3,12.9,17.3,13z
	 M18.3,13C18.3,13,18.3,13,18.3,13c-0.3,0.7-1.1,0.3-0.7-0.4l0.9-1.5c0.2,0.1,0.3,0.1,0.5,0.1C18.9,11.3,18.3,13,18.3,13z
	 M19.2,13.2c-0.2,0.7-1,0.5-0.8-0.2l0.7-1.7c0.2,0,0.3,0.1,0.5,0.1C19.6,11.4,19.2,13.2,19.2,13.2L19.2,13.2z M20.2,13.3
	c-0.1,0.7-1,0.6-0.8-0.1c0,0,0.4-1.8,0.4-1.8c0.2,0,0.3,0,0.5,0C20.3,11.5,20.2,13.3,20.2,13.3L20.2,13.3z M20.4,13.3
	c0,0,0.1-1.8,0.1-1.8c0.2,0,0.4,0,0.6,0c0,0,0.1,1.8,0.1,1.8C21.2,14.1,20.3,14.1,20.4,13.3z M0.6,2.1C0.7,2,0.9,2,1.1,2
	c1.1,0,3.7,0.1,4.3,0.1S9.5,2.5,10,2.7C10.3,2.7,10.3,3,10,3C9.7,3,5.9,3.1,5.3,3.1c-0.4,0-2.6,0-3.9-0.3C0.7,2.7,0.4,2.3,0.6,2.1
	L0.6,2.1z M1.8,3.4c0.7,0,3.9,0,4.3,0c0.4,0,3.3-0.2,3.7-0.2c0.7,0,1,0.3,0.2,0.5C9.6,3.8,6,4.2,3.1,4.2c-0.5,0-1.2-0.3-1.4-0.5
	C1.5,3.4,1.7,3.4,1.8,3.4L1.8,3.4z M3.1,4.6c0.5,0,5.8-0.4,7-0.6c1-0.1,0.8,0.4,0.4,0.4c-0.3,0.1-4.3,0.8-6.3,0.9
	C3.4,5.3,2.6,4.7,3.1,4.6L3.1,4.6z M4.5,5.8c0.6-0.1,4.9-0.7,6-1.1c1-0.3,0.8,0.4,0.5,0.5c-0.3,0.1-3.9,1-4.8,1c-0.3,0-0.7,0-1-0.1
	C4,6,4.5,5.8,4.5,5.8z M6.2,6.7c0.5-0.1,4.2-0.9,5.2-1.3c0.5-0.2,0.7,0.3,0.3,0.5c-0.2,0.1-3,1.3-4.4,1.3C6.9,7.2,6,6.9,6.2,6.7
	L6.2,6.7z M12.2,5.9c-0.4,0.2-3,1.3-3.9,1.5C8.1,7.5,8,7.5,8,7.6c0.1,0.6,1.9,0.1,2,0c0.7-0.2,2.1-0.7,2.7-1.3
	C12.6,6.3,12.2,6,12.2,5.9z M13,6.6c-0.3,0.2-2.1,1.1-2.9,1.4c-0.4,0.1,0,0.6,0.9,0.3c0.9-0.1,2.3-1.2,2.5-1.4
	C13.3,6.8,13.1,6.6,13,6.6L13,6.6z M13.8,7.1c-0.3,0.2-1,0.6-1.4,0.9c-0.2,0.1-0.6,0.3-0.6,0.5c0,0.1,0.2,0.2,0.9,0
	c0.5-0.2,1-0.6,1.5-1.2C14.2,7.2,13.9,7.1,13.8,7.1z M14.6,7.3C14.5,7.5,14.2,7.7,14,8c-0.2,0.3-0.6,0.4-0.5,0.7
	c0.2,0.3,0.7-0.1,0.9-0.3c0.3-0.3,0.5-0.6,0.6-0.9C14.9,7.4,14.8,7.4,14.6,7.3L14.6,7.3z"/>
<path class="st0" d="M8.3,1.9c0.5,0,2.1,0.1,2.7,0.1c1.7,0,3.9-0.3,5.5,0c1,0.2,1.1,0.5,1.1,0.8c0,0.4-0.3,0.6-0.6,0.8
	c-0.3,0.2-1.1,0.7-1.1,2c-0.2-0.1-0.5-0.1-0.3-0.6c0.4-0.8,1.2-1.7-0.2-2.1c-0.2-0.1-0.5-0.1-0.9-0.1c-1.1,0-2.6,0-3.2-0.1
	c-0.5-0.1-2.5-0.6-2.9-0.6C8.2,2.1,8.2,2,8.3,1.9L8.3,1.9z"/>
<path class="st0" d="M12.5,3.1c0.4,0,1.6,0,1.9,0c1.1,0.1,1.9,0.6,1.1,1.6c-0.2,0.2-0.6,0.6-0.7,0.7c-0.1,0.1-0.4-0.1-0.2-0.3
	c-0.3,0.2-0.7,0.1-0.5-0.3C13.8,5,13.4,5,13.7,4.4c-0.2,0.1-0.7,0.1-0.4-0.3c-0.3,0.1-0.6-0.1-0.4-0.3c-0.3,0.1-0.5-0.2-0.2-0.4
	C12.4,3.5,12.3,3.1,12.5,3.1L12.5,3.1z M11.4,2.9c-0.1,0-0.8-0.1-0.8,0.2c0,0.3,0.7,0.2,0.9,0.2C11.8,3.2,12,3.1,12,3
	C12,2.9,11.7,2.9,11.4,2.9z M11.5,3.4c-0.2,0-0.7,0-0.6,0.3c0,0.1,0.2,0.3,0.9,0.1c0.3-0.1,0.5-0.2,0.5-0.4
	C12.2,3.4,11.8,3.4,11.5,3.4L11.5,3.4z M11.9,4c-0.1,0-0.8,0.1-0.6,0.4c0.1,0.2,0.2,0.2,0.4,0.2c0.1,0,1.1-0.3,0.9-0.6
	C12.5,3.9,12.3,3.9,11.9,4z M12.2,4.4c-0.6,0.3-0.6,0.4-0.6,0.5c0,0.1,0.3,0.2,0.9-0.1c0.3-0.1,0.3-0.3,0.2-0.4
	C12.7,4.3,12.5,4.3,12.2,4.4L12.2,4.4z M12.7,4.9C12,5.1,12,5.3,12.1,5.4c0.1,0.1,0.3,0.3,0.8-0.1c0.3-0.2,0.5-0.4,0.5-0.5
	C13.4,4.7,13,4.7,12.7,4.9L12.7,4.9z M12.9,5.5c-0.2,0.1-0.3,0.2-0.1,0.4c0.2,0.3,0.8-0.2,0.9-0.4c0.1-0.1,0.2-0.2,0.1-0.3
	C13.8,5.1,13.6,5.1,12.9,5.5L12.9,5.5z M14,5.6c-0.8,0.4-0.7,0.6-0.6,0.7c0.1,0.1,0.4,0.2,0.9-0.4C14.5,5.6,14.3,5.4,14,5.6L14,5.6z
	 M14.4,6c-0.2,0.2-0.5,0.5-0.2,0.7c0.2,0.2,0.4,0,0.5-0.1C15.3,5.8,15.1,5.4,14.4,6z"/>
<path d="M16.7,2.4c0.5,0.3,0.8,0.6,0.2,0.9c-0.1,0,0,0.2,0.1,0.1c0.6-0.4,0.5-0.9-0.2-1.2C16.7,2.2,16.6,2.4,16.7,2.4z"/>
<path class="st0" d="M24.1,8.6c0-0.6-0.6-1.2-1.3-1.4c-0.2,0-0.1-0.2,0-0.3c0.1-0.1,0.9-0.6,0.9-1.3c0-0.7-0.8-1.7-3-1.7
	c-1.3,0-2.4,0.3-3.1,0.9c0.2,0.1,0.3,0.3,0.3,0.5V9c0,0.2-0.1,0.4-0.3,0.6c0.6,0.4,1.7,0.8,3.2,0.8C22.4,10.4,24.1,9.9,24.1,8.6
	L24.1,8.6z"/>
<ellipse cx="20.8" cy="5.8" rx="1.3" ry="1"/>
<ellipse cx="21" cy="8.6" rx="1.4" ry="1.1"/>
<path class="st0" d="M15.3,6.8c0-0.2,0.1-0.5,0.2-0.7c0,0-0.2-0.3-0.7,0.4C14.6,6.9,15,7,15.3,6.8L15.3,6.8z M15.2,7.9
	c-0.2,0.2-0.4,0.4-0.5,0.6c-0.2,0.3,0.4,0.7,0.8,0.3C15.4,8.5,15.3,8.2,15.2,7.9z M24.2,2.1C24.3,2.1,24.4,2,24.5,2
	c-2.3-1.1-5.2-1.1-7.5,0c0.1,0,0.2,0.1,0.3,0.1C19.5,1.2,22.1,1.2,24.2,2.1z"/>
<path class="st0" d="M25.3,5c-0.3-0.9-0.9-1.3-1.2-1.5c-0.5-0.4-0.5-0.9,0-1.3c-2.1-0.9-4.6-0.9-6.6,0c0.4,0.5,0.5,1,0,1.3
	c-0.3,0.2-0.9,0.5-1.2,1.5C18.5,2.7,23,2.7,25.3,5z M27,9c-0.2,0.5-0.9,0.4-1.3,0.2c-0.5,0.8-1.4,1.5-2.5,1.9l0.9,1.5
	c1.7-0.7,3-2,3.5-3.5C27.4,9.1,27.2,9.1,27,9L27,9z"/>
<path class="st0" d="M24.2,13c1.9-0.8,3.3-2.2,3.8-3.9c-0.1,0-0.2,0-0.3,0c-0.6,1.5-1.9,2.8-3.6,3.6C24.2,12.8,24.2,12.9,24.2,13z
	 M23.2,13L23.2,13c0.3,0.7,1.1,0.3,0.7-0.4l-0.9-1.5c-0.2,0.1-0.3,0.1-0.5,0.1C22.6,11.3,23.2,13,23.2,13z M22.3,13.2
	c0.2,0.7,1,0.5,0.8-0.2c0,0-0.7-1.6-0.7-1.7c-0.2,0-0.3,0.1-0.5,0.1C21.9,11.4,22.3,13.2,22.3,13.2L22.3,13.2z M21.3,13.3
	c0.1,0.7,1,0.6,0.8-0.1c0,0-0.4-1.8-0.4-1.8c-0.2,0-0.3,0-0.5,0C21.2,11.5,21.3,13.3,21.3,13.3L21.3,13.3z M40.9,2.1
	C40.8,2,40.6,2,40.4,2c-1.1,0-3.7,0.1-4.3,0.1c-0.5,0-4.1,0.4-4.7,0.6c-0.3,0.1-0.3,0.3,0,0.3c0.3,0,4.2,0.1,4.7,0.1
	c0.4,0,2.6,0,3.9-0.3C40.8,2.7,41.1,2.3,40.9,2.1L40.9,2.1z M39.7,3.4c-0.7,0-3.9,0-4.3,0c-0.4,0-3.3-0.2-3.7-0.2
	c-0.7,0-1,0.3-0.2,0.5c0.4,0.1,4.1,0.5,6.9,0.5c0.5,0,1.2-0.3,1.4-0.5C40,3.4,39.8,3.4,39.7,3.4L39.7,3.4z M38.4,4.6
	c-0.5,0-5.8-0.4-7-0.6c-1-0.1-0.8,0.4-0.4,0.4c0.3,0.1,4.3,0.8,6.3,0.9C38.1,5.3,38.9,4.7,38.4,4.6z M37,5.8c-0.6-0.1-4.9-0.7-6-1.1
	c-1-0.3-0.8,0.4-0.5,0.5c0.3,0.1,3.9,1,4.8,1c0.3,0,0.7,0,1-0.1C37.5,6,37,5.8,37,5.8z M35.3,6.7c-0.5-0.1-4.2-0.9-5.2-1.3
	c-0.5-0.2-0.7,0.3-0.3,0.5c0.2,0.1,3,1.3,4.4,1.3C34.6,7.2,35.5,6.9,35.3,6.7L35.3,6.7z M29.3,5.9c0.4,0.2,3,1.3,3.9,1.5
	c0.1,0,0.3,0.1,0.3,0.2c-0.1,0.6-1.9,0.1-2,0c-0.7-0.2-2.1-0.7-2.7-1.3C28.9,6.3,29.3,6,29.3,5.9z M28.5,6.6
	c0.3,0.2,2.1,1.1,2.9,1.4c0.4,0.1,0,0.6-0.9,0.3C29.6,8.1,28.3,7,28,6.8C28.2,6.8,28.4,6.6,28.5,6.6L28.5,6.6z M27.7,7.1
	c0.3,0.2,1,0.6,1.4,0.9c0.2,0.1,0.6,0.3,0.6,0.5c0,0.1-0.2,0.2-0.9,0c-0.5-0.2-1-0.6-1.5-1.2C27.3,7.2,27.6,7.1,27.7,7.1L27.7,7.1z
	 M26.9,7.3C27,7.5,27.3,7.7,27.5,8c0.2,0.3,0.6,0.4,0.5,0.7c-0.2,0.3-0.7-0.1-0.9-0.3c-0.3-0.3-0.5-0.6-0.6-0.9
	C26.6,7.4,26.7,7.4,26.9,7.3L26.9,7.3z"/>
<path class="st0" d="M33.2,1.9c-0.5,0-2.1,0.1-2.7,0.1c-1.7,0-3.9-0.3-5.5,0c-1,0.2-1.1,0.5-1.1,0.8c0,0.4,0.3,0.6,0.6,0.8
	c0.3,0.2,1.1,0.7,1.1,2C25.9,5.5,26.2,5.5,26,5c-0.4-0.8-1.2-1.7,0.2-2.1c0.2-0.1,0.5-0.1,0.9-0.1c1.1,0,2.6,0,3.2-0.1
	c0.5-0.1,2.5-0.6,2.9-0.6C33.3,2.1,33.3,2,33.2,1.9L33.2,1.9z"/>
<path class="st0" d="M29,3.1c-0.4,0-1.6,0-1.9,0C26,3.1,25.2,3.6,26,4.6c0.2,0.2,0.6,0.6,0.7,0.7c0.1,0.1,0.4-0.1,0.2-0.3
	c0.3,0.2,0.7,0.1,0.5-0.3C27.7,5,28.1,5,27.8,4.4c0.2,0.1,0.7,0.1,0.4-0.3c0.3,0.1,0.6-0.1,0.4-0.3c0.3,0.1,0.5-0.2,0.2-0.4
	C29.1,3.5,29.2,3.1,29,3.1L29,3.1z M30.1,2.9c0.1,0,0.8-0.1,0.8,0.2c0,0.3-0.7,0.2-0.9,0.2c-0.3,0-0.5-0.1-0.5-0.2
	C29.5,2.9,29.8,2.9,30.1,2.9L30.1,2.9z M30,3.4c0.2,0,0.7,0,0.6,0.3c0,0.1-0.2,0.3-0.9,0.1c-0.3-0.1-0.5-0.2-0.5-0.4
	C29.3,3.4,29.7,3.4,30,3.4L30,3.4z M29.6,4c0.1,0,0.8,0.1,0.6,0.4c-0.1,0.2-0.2,0.2-0.4,0.2c-0.1,0-1.1-0.3-0.9-0.6
	C29,3.9,29.2,3.9,29.6,4z M29.3,4.4c0.6,0.3,0.6,0.4,0.6,0.5c0,0.1-0.3,0.2-0.9-0.1c-0.3-0.1-0.3-0.3-0.2-0.4
	C28.8,4.3,29,4.3,29.3,4.4L29.3,4.4z M28.8,4.9c0.7,0.2,0.6,0.4,0.6,0.6c-0.1,0.1-0.3,0.3-0.8-0.1C28.3,5.1,28,5,28.1,4.8
	C28.1,4.7,28.5,4.7,28.8,4.9L28.8,4.9z M28.6,5.5c0.2,0.1,0.3,0.2,0.1,0.4c-0.2,0.3-0.8-0.2-0.9-0.4c-0.1-0.1-0.2-0.2-0.1-0.3
	C27.7,5.1,27.9,5.1,28.6,5.5L28.6,5.5z M27.5,5.6c0.8,0.4,0.7,0.6,0.6,0.7c-0.1,0.1-0.4,0.2-0.9-0.4C27,5.6,27.2,5.4,27.5,5.6
	L27.5,5.6z M27.1,6c0.2,0.2,0.5,0.5,0.2,0.7c-0.2,0.2-0.4,0-0.5-0.1C26.2,5.8,26.4,5.4,27.1,6z"/>
<path d="M24.8,2.4c-0.5,0.3-0.8,0.6-0.2,0.9c0.1,0,0,0.2-0.1,0.1c-0.6-0.4-0.5-0.9,0.2-1.2C24.8,2.2,24.9,2.4,24.8,2.4z"/>
<path class="st0" d="M26.2,6.8c-0.1-0.2-0.1-0.5-0.2-0.7c0,0,0.2-0.3,0.7,0.4C26.9,6.9,26.5,7,26.2,6.8L26.2,6.8z M26.3,7.9
	c0.2,0.2,0.4,0.4,0.5,0.6C27,8.8,26.4,9.2,26,8.8C26.1,8.5,26.2,8.2,26.3,7.9z"/>
</svg>
