<svg xmlns="http://www.w3.org/2000/svg" viewBox="0 0 24.25 24.25"><g id="Capa_2" data-name="Capa 2"><g id="Capa_1-2" data-name="Capa 1"><path d="M12.12,0A12.13,12.13,0,1,0,24.25,12.12,12.12,12.12,0,0,0,12.12,0M23.46,12.12A11.34,11.34,0,1,1,12.12.79,11.34,11.34,0,0,1,23.46,12.12"/><path d="M12.12,4.93v.4a6.8,6.8,0,0,1,6.8,6.79h.39a7.19,7.19,0,0,0-7.19-7.19m0,14a6.8,6.8,0,0,1-6.79-6.8h-.4a7.19,7.19,0,0,0,7.19,7.19"/><path d="M18,7c.16.18.4.46.53.64L21,6.06c-.12-.16-.32-.41-.47-.58L19,6.51l-.11.09.08-.11.69-1.37-.49-.49-1.37.69-.11.08.09-.11,1-1.55c-.18-.16-.36-.3-.58-.47L16.64,5.72c.2.15.46.38.63.53l1.46-.76.1-.07-.07.09Z"/><path d="M12.43,3.87l.67-1.5,0-.13v.14l.07,2,.72.1-.11-3c-.34,0-.67-.06-1-.07l-.66,1.64,0,.12,0-.12-.66-1.64c-.34,0-.67,0-1,.07l-.11,3,.72-.1.07-2,0-.14.05.13.67,1.5Z"/><path d="M7,6.24c.38-.41.61-.88.22-1.33a.77.77,0,0,0-.86-.18h0v0A.7.7,0,0,0,6.1,4a.71.71,0,0,0-.54-.16c-.37,0-.64.29-1.41,1.14-.23.26-.56.66-.76.93l2.09,2c.69-.77,1-1,1.53-1.63M4.27,5.75A15,15,0,0,1,5.35,4.58a.55.55,0,0,1,.22-.14.27.27,0,0,1,.31.2h0A.46.46,0,0,1,5.72,5c-.22.25-1,1.11-1,1.11Zm.82.78L6.15,5.42a.91.91,0,0,1,.24-.2.26.26,0,0,1,.28,0,.25.25,0,0,1,.11.26.78.78,0,0,1-.21.33L5.52,6.94Z"/><path d="M12.12,4.93v7.19H4.93a7.19,7.19,0,0,1,7.19-7.19"/><path d="M19.31,12.12a7.19,7.19,0,0,1-7.19,7.19V12.12Z"/></g></g></svg>