<svg xmlns="http://www.w3.org/2000/svg" viewBox="0 0 25.7 23"><g id="Capa_2" data-name="Capa 2"><g id="Capa_1-2" data-name="Capa 1"><path d="M24.93,21.78c-2.25-1.91-8.91-7.35-12.08-7.35S3,19.87.78,21.78c0-.45,0-.72,0-1.13a2,2,0,0,1,.54-1.33,39.76,39.76,0,0,1,10.13-6.59c1.52-.64,1.43-.52,1.43-3.08H13c2.14.19,7.91,5.75,11.32,9.5A2.94,2.94,0,0,1,25,20.74c0,.38,0,.75,0,1m-.1-3.13c-.36-.4-8.89-9.76-12-9.76S1.23,18.25.87,18.65h0A3.52,3.52,0,0,0,0,20.74c0,.86.06,1.72.06,1.73s0,.4.22.5a.23.23,0,0,0,.11,0,.47.47,0,0,0,.25-.1c.09-.09,8.79-7.71,12.21-7.71S25,22.81,25.06,22.89a.45.45,0,0,0,.25.11.2.2,0,0,0,.11,0c.2-.1.22-.46.22-.5s.06-.87.06-1.73A3.52,3.52,0,0,0,24.83,18.65Z"/><path d="M24.91,12.88C22.67,11,16,5.54,12.85,5.54S3,11,.79,12.88c0-.45,0-.73,0-1.13a1.92,1.92,0,0,1,.53-1.33A39.41,39.41,0,0,1,11.42,3.84c1.52-.64,1.43-.52,1.43-3.08a.38.38,0,0,1,.11,0c2.14.19,7.9,5.74,11.3,9.49a2.84,2.84,0,0,1,.68,1.59c0,.37,0,.75,0,1m-.09-3.13c-.36-.4-8.88-9.75-12-9.75S1.24,9.35.88,9.75h0A3.52,3.52,0,0,0,0,11.84c0,.85.06,1.72.06,1.72s0,.41.23.51l.1,0A.4.4,0,0,0,.65,14c.1-.08,8.78-7.7,12.2-7.7S25,13.91,25,14a.45.45,0,0,0,.26.1l.11,0c.2-.1.22-.47.22-.51s.06-.87.06-1.72A3.52,3.52,0,0,0,24.82,9.75Z"/></g></g></svg>