<svg xmlns="http://www.w3.org/2000/svg" viewBox="0 0 43.33 4.73"><g id="Capa_2" data-name="Capa 2"><g id="Capa_1-2" data-name="Capa 1"><path d="M30.6,4.73h1.85V0H30.6ZM21.3.26,19.41,2.17a.24.24,0,0,0-.06.32l.06.07L21.3,4.47a.71.71,0,0,0,.62.25h6.21V3.13H22.39l-.81-.77.81-.76h5.74V0H21.92a.76.76,0,0,0-.63.26ZM6.84,4.47,8.73,2.56a.24.24,0,0,0,.06-.32s0-.05-.06-.07L6.84.26A.73.73,0,0,0,6.22,0H0V1.6H5.74l.81.76-.81.77H0v1.6H6.22A.73.73,0,0,0,6.84,4.47Zm34.08.26h2.41L38.79.11a.21.21,0,0,0-.3-.07.27.27,0,0,0-.08.07L33.88,4.73h2.38l2.33-2.4Zm-24.64,0h2.4L14.15.11a.21.21,0,0,0-.3-.07.14.14,0,0,0-.08.07L9.24,4.73h2.38L14,2.33l2.33,2.4Z"/></g></g></svg>