<?xml version="1.0" encoding="utf-8"?>
<!-- Generator: Adobe Illustrator 25.2.3, SVG Export Plug-In . SVG Version: 6.00 Build 0)  -->
<svg version="1.1" id="Capa_1" xmlns="http://www.w3.org/2000/svg" xmlns:xlink="http://www.w3.org/1999/xlink" x="0px" y="0px"
	 viewBox="0 0 41.5 14.4" style="enable-background:new 0 0 41.5 14.4;" xml:space="preserve">
<g id="layer1" transform="translate(-44.944093,-112.85835)">
	<path id="path4550" d="M45.1,124.7c0,0-0.1-0.3-0.1-0.6v-0.6l0.7,0l0.7,0l0-3.2l0-3.2h-0.7H45v-0.6v-0.6l2.8,0c1.6,0,7.2,0,12.5,0
		s12.6,0,16.1,0l6.5,0l0,0.6l0,0.6l-17.2,0l-17.2,0l0,1.3c0,1.2,0,1.3,0.3,1.3c0.2,0,0.3,0,0.3-0.3c0-0.3,0.1-0.3,0.5-0.4l0.5,0v1.2
		v1.2h-0.4c-0.2,0-0.4,0-0.5,0c0,0-0.1-0.1-0.1-0.3c0-0.3-0.1-0.3-0.3-0.3c-0.2,0-0.3,0.1-0.3,1.4v1.3l0.7,0l0.7,0l0,0.6l0,0.6
		l-2.3,0C46.2,124.8,45.1,124.7,45.1,124.7L45.1,124.7z M51.5,124.6c-0.2-0.1-0.5-0.3-0.6-0.6c-0.2-0.4-0.2-0.6-0.2-2.8
		c0-2.3,0-2.4,0.3-2.7c0.4-0.5,0.9-0.6,2.7-0.6c2.6,0,2.8,0.2,2.8,2.6v1.4h-1.9h-1.9l0,0.9l0,0.9l0.6,0.1c0.9,0.1,1.1,0,1.1-0.7
		v-0.6h1h1v0.6c0,0.8-0.3,1.2-0.9,1.5c-0.4,0.2-0.8,0.2-2.1,0.2C52.3,124.8,51.7,124.7,51.5,124.6L51.5,124.6z M54.4,120.1
		c0-1.3,0-1.3-0.8-1.3c-1,0-1,0-1,1.2v1h0.9h0.9L54.4,120.1z M57.1,124.1c0-0.7,0-0.7,0.3-0.6l0.3,0.1v-2.2V119h-0.3
		c-0.3,0-0.3,0-0.3-0.6v-0.6h1.3h1.3v0.4c0,0.2,0,0.4,0.1,0.4c0,0,0.3-0.2,0.6-0.4c0.6-0.4,1.4-0.6,1.9-0.4c0.6,0.2,0.7,0.6,0.7,2.2
		v1.4l-1,0l-1,0l0-1.3l0-1.3l-0.6,0.5l-0.6,0.5l0,1.6c0,1.6,0,1.6,0.3,1.7c0.2,0,0.3,0.1,0.3,0.7v0.6h-1.6h-1.6V124.1z M63.5,124.1
		c0-0.7,0-0.7,0.3-0.6l0.3,0.1v-2.2V119h-0.3c-0.3,0-0.3,0-0.3-0.6v-0.6h1.3h1.3v0.4c0,0.2,0,0.4,0.1,0.4c0,0,0.3-0.2,0.6-0.4
		c0.4-0.3,0.7-0.4,1.1-0.4c0.6-0.1,0.7,0,1,0.3l0.4,0.3v1.6v1.6h-1h-1v-1.2c0-0.6,0-1.2-0.1-1.2c-0.1,0-0.3,0.2-0.6,0.5l-0.5,0.5
		l0,1.6c0,1.6,0,1.6,0.3,1.6c0.2,0,0.3,0.1,0.3,0.7v0.6h-1.6h-1.6L63.5,124.1z M70.7,124.6c-0.6-0.3-0.8-0.7-0.8-1.8
		c-0.1-1,0.1-1.7,0.4-2c0.1-0.1,0.7-0.2,1.5-0.2l1.4-0.1l0-0.6c0.1-1,0-1.2-0.6-1.2c-0.6,0-0.8,0.2-0.8,0.8v0.5h-1h-1v-0.5
		c0-0.8,0.3-1.3,0.8-1.5c0.3-0.1,0.8-0.2,2.2-0.1c1.7,0,1.7,0,2.1,0.4l0.3,0.3l0,2.4c0,2.3,0.1,2.4,0.3,2.5c0.2,0,0.2,0.2,0.2,0.7
		v0.6l-2.3,0C71.7,124.8,71,124.7,70.7,124.6L70.7,124.6z M73.2,122.6l0-1.1l-0.5,0c-0.7-0.1-0.8,0.1-0.8,1.1c0,1.2,0,1.2,0.8,1.2
		h0.6L73.2,122.6z M76.4,124.1c0-0.6,0-0.7,0.3-0.7c0.3,0,0.3,0,0.3-2.2l0-2.2h-0.3c-0.3,0-0.3,0-0.3-0.6v-0.6h1.3H79v0.4v0.4
		l0.6-0.4c0.4-0.3,0.8-0.4,1.2-0.4c0.6,0,0.7,0,1,0.3l0.4,0.4v1.5v1.5h-1h-1v-1.2c0-0.7-0.1-1.2-0.1-1.2c-0.1,0-0.3,0.1-0.6,0.4
		l-0.5,0.5v1.7v1.7h0.3c0.3,0,0.3,0,0.3,0.6v0.6H78h-1.6V124.1z M83.2,124.1c0-0.7,0.1-0.7,0.6-0.7c0.1,0,0.1-0.5,0.1-2.2V119h-0.4
		c-0.3,0-0.4,0-0.4-0.6v-0.6h1.6h1.6v0.6c0,0.5,0,0.6-0.3,0.6h-0.3l0,2.2c0,2.2,0,2.2,0.3,2.2c0.2,0,0.3,0.1,0.3,0.7v0.6h-1.6h-1.6
		L83.2,124.1z M83.6,116.7c-0.9-0.5-0.2-1.1,1.2-1.1c0.4,0,0.9,0.1,1.1,0.1c0.7,0.2,0.7,0.8,0,1C85.4,117,84.1,116.9,83.6,116.7
		L83.6,116.7z"/>
</g>
</svg>
