<svg xmlns="http://www.w3.org/2000/svg" viewBox="0 0 456.17 453.23"><defs><style>.cls-1{fill:#1d1d1b;fill-rule:evenodd;}</style></defs><g id="Page_1" data-name="Page 1"><g id="Camada_1-2" data-name="Camada 1"><path class="cls-1" d="M203.13,207H258v20.24L222,227.3,222.1,282l28.2,0,.09,20.5-28.27-.06L222,390.21H203.13V207Zm63.37-.53h18.88V390.21H266.5V206.48ZM370.32,389.67H351.44l-.12-87.34h-26l-.41,87.36-17,0V206.48h44.52l17.95,36.25V389.67ZM351.45,278H325.38V226.72l16.16-.06,9.91,24V278ZM374.52,207h57.82l-.19,20.57-18.92,0L413,389.67H394.14l-.84-162-18.8-.12,0-20.52Zm-56.26,313c-125.95,0-228.09-101.48-228.09-226.61S192.31,66.82,318.26,66.82,546.34,168.3,546.34,293.44,444.21,520.05,318.26,520.05ZM127.7,202.16c5.16-31.85,25.53-55.32,58.23-74.23,71.37-47.1,184.62-47.81,266.13,1.65,29.43,15.35,46.39,38.8,54.35,69.19,16.44,86.41,2.11,161.9-34.29,227.17-39.73,91-249.94,92.51-299.32,10.62-41.83-56.69-62.22-151.2-45.1-234.4Zm308,237.2c-47.09,47.74-203.49,37.49-232.19,0-35.12-77.17-47.74-156.22-43.42-236.68q-1.89-40.11,26.33-54.07c65.3-29.32,195.89-32.54,256.46-1.18,25,9.67,34.16,33.75,33.14,68.83,2,88-16,160.81-40.32,223.1Z" transform="translate(-90.17 -66.82)"/></g></g></svg>