<svg xmlns="http://www.w3.org/2000/svg" viewBox="0 0 41.02 15.38"><defs><style>.cls-1{fill:#040505;}</style></defs><g id="Capa_2" data-name="Capa 2"><g id="Capa_1-2" data-name="Capa 1"><path class="cls-1" d="M28.59,9.25a.08.08,0,0,0,0,.07s.05.07.09.08,0,0,0,.06a4.94,4.94,0,0,1-.4.67,2.48,2.48,0,0,1-.52.55c-.3.25-.72.53-1.07.34a.54.54,0,0,1-.22-.47,2.51,2.51,0,0,1,.63-1.49c.5-.61,1-.92,1.4-.75S28.76,8.91,28.59,9.25Z"/><path class="cls-1" d="M19,5.41a.24.24,0,0,0-.31,0,.66.66,0,0,0-.22.59c0,.06,0,.08.07.07a.67.67,0,0,0,.41-.3C19,5.68,19.05,5.49,19,5.41Zm0,0a.24.24,0,0,0-.31,0,.66.66,0,0,0-.22.59c0,.06,0,.08.07.07a.67.67,0,0,0,.41-.3C19,5.68,19.05,5.49,19,5.41ZM20.51,0C9.13,0,0,3.41,0,7.69s9.2,7.69,20.51,7.69S41,11.93,41,7.69,31.82,0,20.51,0Zm0,14.71C9.65,14.71.86,11.57.86,7.69s8.79-7,19.65-7,19.65,3.15,19.65,7S31.36,14.71,20.51,14.71Zm0-13.45c-10.47,0-19,2.89-19,6.43s8.49,6.44,19,6.44,19-2.9,19-6.44S31,1.26,20.51,1.26ZM10.77,11.92A2.09,2.09,0,0,1,8.55,10a2.4,2.4,0,0,1,.5-1.74,2.46,2.46,0,0,1,1.38-.89.53.53,0,0,1,.45.1.25.25,0,0,1,0,.4,2.19,2.19,0,0,0-1,.94A1.14,1.14,0,0,0,9.88,10c.44.67,1.7.69,2.86-.39a9,9,0,0,0,.81-.82,16.9,16.9,0,0,0,1.37-1.75,0,0,0,0,0,0,0l0,0a2.08,2.08,0,0,0-1.24.44.24.24,0,0,1-.34,0,.26.26,0,0,1,.11-.36,4.51,4.51,0,0,1,2-.63.12.12,0,0,0,.09-.05c.28-.37.5-.7.8-1.07a9,9,0,0,1,1-1,4,4,0,0,1,1-.63c.07,0,0-.09,0-.09a8.55,8.55,0,0,0-4.65-.09c-1.05.39-1.51,1.22-1.29,1.78.16.4.68.46,1.17.22a2.63,2.63,0,0,0,1-.93c.15-.22.46-.06.29.34a2.83,2.83,0,0,1-2.33,1.91A1.36,1.36,0,0,1,11,5.44c0-1.58,1.76-2.62,3.61-2.78,2.22-.18,4.33.41,6.54.68a14.09,14.09,0,0,0,5-.18.26.26,0,0,1,.33.29c0,.29-.25.57-.81.88a4.1,4.1,0,0,1-2,.46,22.73,22.73,0,0,1-4.88-1c0,.07,0,.15,0,.2a7.67,7.67,0,0,0-2.26,2.28s0,0,0,0c.47,0,.89,0,1.33-.08.08,0,.08,0,.08-.08a1.09,1.09,0,0,1,.34-1,.7.7,0,0,1,.9-.1.69.69,0,0,1,.1.89,1.07,1.07,0,0,1-.65.53,0,0,0,0,0,0,.06c0,.07.34.26.37.31s0,.11,0,.17a.21.21,0,0,1-.16.08.35.35,0,0,1-.17-.06,1.92,1.92,0,0,1-.46-.37c0-.06-.06-.06-.17,0-.47,0-1.22.1-1.72.16-.12,0-.14,0-.17.08a21,21,0,0,1-2.6,3.71A3.59,3.59,0,0,1,10.77,11.92ZM32.56,5.48c-.16.27-3.16,4.85-3.35,5.32a.36.36,0,0,0,0,.35c.16.21.51.09.73-.07a12.7,12.7,0,0,0,1.6-1.46.09.09,0,0,1,.11,0,2.68,2.68,0,0,1,.26.23.07.07,0,0,1,0,.1,10.85,10.85,0,0,1-1.54,1.56c-.81.62-1.61.78-2,.38a.91.91,0,0,1-.24-.54c0-.1-.05-.1-.1-.06a1.88,1.88,0,0,1-2,.62,1.51,1.51,0,0,1-.66-1.69s0-.1-.09-.05a2,2,0,0,1-.51.28,1.44,1.44,0,0,1-.62.13.87.87,0,0,1-.77-.43,1.26,1.26,0,0,1-.17-.59s0-.06,0,0c-.52.78-1,1.53-1.5,2.33,0,0-.05.06-.1.06h-1c-.07,0-.09,0-.06-.11.18-.34,1.15-1.76,1.81-3,.18-.34.14-.51,0-.58s-.42.05-.66.23a8.76,8.76,0,0,0-1.47,1.6,8.61,8.61,0,0,1-.74,1,2.32,2.32,0,0,1-2.41.86,1.46,1.46,0,0,1-.93-1c0-.09-.07-.12-.12-.06a3.53,3.53,0,0,1-.66.59s-.09,0-.14,0a1.53,1.53,0,0,1-.26-.34.12.12,0,0,1,0-.14,5.06,5.06,0,0,0,.66-.65,2,2,0,0,0,.3-.54,3.77,3.77,0,0,1,1.6-2,2.92,2.92,0,0,1,1.11-.37c.18,0,.32,0,.37.13l.09.27A.09.09,0,0,1,19,8a3.22,3.22,0,0,0-1.48,1,1.5,1.5,0,0,0-.25,1.67.75.75,0,0,0,.87.24,2,2,0,0,0,1.14-1.13A2.69,2.69,0,0,0,19.37,8a.23.23,0,0,1,.06-.24,2.3,2.3,0,0,1,.37-.21.23.23,0,0,1,.31.07,2,2,0,0,1,.29,1c0,.08.05.09.09,0a10.11,10.11,0,0,1,1-1,1.84,1.84,0,0,1,1.1-.45c.49,0,.73.35.71.94,0,.07.06.07.09,0a2.06,2.06,0,0,1,.41-.46,1.48,1.48,0,0,1,1.05-.37.78.78,0,0,1,.72.9.87.87,0,0,1-.48.69.64.64,0,0,1-.69-.07.56.56,0,0,1-.16-.56s-.05-.08-.1,0a1,1,0,0,0-.18,1.3c.31.29.78.09,1.13-.13.62-.41,1.11-1,1.67-1.39A2.87,2.87,0,0,1,28,7.52a1.6,1.6,0,0,1,.78.09.9.9,0,0,1,.58.68c0,.07.07.08.11,0,.27-.42,1.72-2.59,1.84-2.82,0-.07.07-.08.15-.08h1C32.56,5.4,32.59,5.44,32.56,5.48ZM18.5,6.11a.67.67,0,0,0,.41-.3c.1-.13.14-.32.05-.4a.24.24,0,0,0-.31,0,.66.66,0,0,0-.22.59C18.44,6.1,18.47,6.12,18.5,6.11Z"/></g></g></svg>