<svg xmlns="http://www.w3.org/2000/svg" viewBox="0 0 26.37 21.44"><g id="Capa_2" data-name="Capa 2"><g id="Capa_1-2" data-name="Capa 1"><path d="M19.25,1.81c-.61,2.7-.84,4-1.34,5.9a15.33,15.33,0,0,1-1.47,4.47,2.89,2.89,0,0,1-2.08,1.11,9.76,9.76,0,0,1-1.18.05A9.68,9.68,0,0,1,12,13.29a2.9,2.9,0,0,1-2.09-1.11c-.63-.85-1-2.59-1.47-4.47s-.73-3.2-1.33-5.9l-.88,0-1,.1s.35,5.56.5,7.91.46,6.65.73,9.81c0,0,.51.08,1.36.12l1.28.06a20,20,0,0,1,1.32-4.14,1.79,1.79,0,0,1,1.42-.78,9.61,9.61,0,0,1,1.28-.09h0a9.4,9.4,0,0,1,1.27.09,1.76,1.76,0,0,1,1.42.78,19.4,19.4,0,0,1,1.33,4.14l1.28-.06c.84,0,1.35-.12,1.35-.12.27-3.16.57-7.33.73-9.81S21.08,2,21.08,2l-1-.1-.87,0"/><path d="M26.25,5.09C25.89,1.56,23.54.82,21.47.47,20.43.3,18.58.15,17.39.1c-1-.07-3.48-.1-4.21-.1S10,0,9,.1s-3,.2-4.08.37C2.83.82.47,1.56.11,5.09,0,6.05,0,7.31,0,8.66a45.07,45.07,0,0,0,.34,4.79,22.68,22.68,0,0,0,.76,4,4.49,4.49,0,0,0,1.56,2.44A7.17,7.17,0,0,0,5.73,21a56.47,56.47,0,0,0,7.45.4,56.7,56.7,0,0,0,7.46-.4,7.21,7.21,0,0,0,3.07-1.16,4.49,4.49,0,0,0,1.56-2.44,24.68,24.68,0,0,0,.76-4,45.74,45.74,0,0,0,.33-4.79,32,32,0,0,0-.11-3.57M25,11a28.63,28.63,0,0,1-.82,5.73,4.66,4.66,0,0,1-1.27,2.3,5.58,5.58,0,0,1-3,1.16,53.48,53.48,0,0,1-6.66.33,53.42,53.42,0,0,1-6.65-.33,5.58,5.58,0,0,1-3-1.16,4.66,4.66,0,0,1-1.27-2.3A28.63,28.63,0,0,1,1.41,11,36.3,36.3,0,0,1,1.5,5.09c.28-2.21,1.37-3.32,3.72-3.74a35.43,35.43,0,0,1,4-.4c1.12-.08,3-.11,4-.1s2.88,0,4,.1a35,35,0,0,1,4,.4c2.35.42,3.45,1.53,3.73,3.74A36.3,36.3,0,0,1,25,11"/></g></g></svg>