<svg xmlns="http://www.w3.org/2000/svg" viewBox="0 0 32.14 15.87"><defs><style>.cls-1{fill-rule:evenodd;}</style></defs><g id="Capa_2" data-name="Capa 2"><g id="Capa_1-2" data-name="Capa 1"><path class="cls-1" d="M16.07,0C7.2,0,0,3.55,0,7.93s7.2,7.94,16.07,7.94,16.07-3.55,16.07-7.94S25,0,16.07,0ZM14.55,1.77c1.83-.65,7.28,0,9.4,1,.68.65-3,2.74-7.43,3.64-6.29,1.27-3.3-3.58-2-4.65ZM3.73,11.17c-1.38-1-4.09-3.81.4-6.75a15.11,15.11,0,0,1,5.34-2c.79-.17,1.35,0,.64.62a35.14,35.14,0,0,0-4.88,7.82c-.23.76-.68,1-1.5.34Zm12.93,3.27C14,14.72,8.11,13.85,8,13.09c.11-1.84,9.37-4.89,11-3.19.7,1.32-.65,4.46-2.38,4.54Zm13.5-5.33c-.68,1.55-3,3.3-7.76,4.49-.74.16-1-.29-.51-.71.79-.48,4.6-6.86,5.08-8.13.28-.65.82-.4,1.16-.14,1.52,1,2.68,2.59,2,4.49Z"/></g></g></svg>