<svg xmlns="http://www.w3.org/2000/svg" viewBox="0 0 36.25 13.77"><defs><style>.cls-1{fill-rule:evenodd;}</style></defs><g id="Capa_2" data-name="Capa 2"><g id="Capa_1-2" data-name="Capa 1"><path class="cls-1" d="M25.4,8.8A2.73,2.73,0,0,0,27,9.51l.95.07c.7,0,.85.38.85.38A4.66,4.66,0,0,0,31,11.61a5.65,5.65,0,0,1-1.67-1.79,2.09,2.09,0,0,0-1.57-.68h-.65A5.06,5.06,0,0,1,25.4,8.8Z"/><path class="cls-1" d="M32.4,12a3.78,3.78,0,0,0-1.12-.28,2.76,2.76,0,0,1,.81.39c.45.27.14.76.14.76-.38.67-1.88.34-1.88.34,1.6,1.06,2.27.26,2.27.26a.85.85,0,0,0,.2-1,3.13,3.13,0,0,0,3-.92A3.47,3.47,0,0,1,32.4,12Z"/><path class="cls-1" d="M5.06.66S4.12.77,3.67.77c0,0-.1,0-.1.08S3.6,1,3.8,1A3.17,3.17,0,0,0,5.06.66Z"/><path class="cls-1" d="M14.88,7.57a29.7,29.7,0,0,0,3.37,0,2.48,2.48,0,0,1,.77.06c.94.14,1.09.58,1.09.58s1.67,3.43,5,3.35h1.55a7.28,7.28,0,0,1,3.27,1.37c-.39-.29-1.18-1-1.18-1A4.49,4.49,0,0,0,26.1,11H24.47a4.11,4.11,0,0,1-3.92-2.83,1.45,1.45,0,0,0-1.33-.82H19a17.42,17.42,0,0,1-4.07-.09,9.1,9.1,0,0,1-2-.81,2.21,2.21,0,0,0-.15-1.27,4.16,4.16,0,0,0,2.16.21,9.76,9.76,0,0,1-2.83-1.26s.56,1.63.09,2.24c0,0-.3,1.13-3.11.21A7,7,0,0,0,7,6.12s-.72,0-.72.4a.3.3,0,0,0,.17.26.39.39,0,0,1,.09.47.51.51,0,0,0,.2-.52.16.16,0,0,1,.12-.19s.38-.16,1.48.24a9.32,9.32,0,0,0,2.79.81A2.59,2.59,0,0,0,12.65,7a9.32,9.32,0,0,0,2.23.53Z"/><path class="cls-1" d="M2.24,4.74a1,1,0,0,0,.66-.33A3.08,3.08,0,0,1,4.78,3.5,5.87,5.87,0,0,1,7.93,4.78a3.93,3.93,0,0,0-2.5-1.73A.65.65,0,0,1,5,2.66c-.41-.75-.88-.79-.88-.79a1.34,1.34,0,0,1,.21.75c0,.79-1.19.9-1.19.9-.47.93-.86.88-.86.88A.29.29,0,0,1,2,4.28a.11.11,0,0,1,0-.14A2.48,2.48,0,0,0,2.27,4a1.89,1.89,0,0,0,.82-1.33A.87.87,0,0,0,2.3,1.8a.57.57,0,0,0-.46.2,7.43,7.43,0,0,0-.43.71C1.18,3.09,1,3,1,3a.62.62,0,0,1-.45-.23l0,0a.24.24,0,0,1,0-.26,1.56,1.56,0,0,1,1-.61l.06,0,.12,0h0c.83-.29.91-.73.91-.73A1.16,1.16,0,0,0,2,1a.81.81,0,0,0-.68.53l-.12-.13a.1.1,0,0,1,0-.14A2.9,2.9,0,0,1,3,.55a9.74,9.74,0,0,1,2.63,0,2.06,2.06,0,0,1-2,.56s0,.35.95.53A4.36,4.36,0,0,1,6.81,3,4.71,4.71,0,0,0,5.38,1.38a.09.09,0,0,1,0-.14A1.64,1.64,0,0,1,6.48.7s3.3.17,5.15,2.1A2.7,2.7,0,0,0,11.29,2s-.06,0,0-.09,0-.08.35,0a24.86,24.86,0,0,1,3.9,1.19l3,1.06s1,.38,1.6.63a4.49,4.49,0,0,0-1.76.28s0,0,0,0,0,0,.05,0a3.16,3.16,0,0,1,1.91.14,7.72,7.72,0,0,1,1.71,1,9.27,9.27,0,0,1,.84.81,10.18,10.18,0,0,0,1.65,1.22S23.74,7.6,23.15,7c0,0-.85-1-1.23-1.35,0,0,2.91,1.37,5.54,2.85l2,1.15a22.07,22.07,0,0,0,2.92,1.5,2.84,2.84,0,0,0,2.42,0l.05,0c.71-.36.87-.25.87-.25a.41.41,0,0,1,.25.5c.3-.32.28-.49.28-.49,0-.54-.6-.49-.6-.49a4.61,4.61,0,0,0-1,.49l-.1.06a3,3,0,0,1-2,0,21.4,21.4,0,0,1-3-1.49s-2.71-1.6-5-2.77c0,0-2.91-1.51-6.82-3.21,0,0-7.44-3.44-12.93-3.44,0,0-2.84,0-3.8,1.06a.56.56,0,0,0-.09.31.07.07,0,0,1,0,.08,4.41,4.41,0,0,0-.77.68.38.38,0,0,0,0,.47s.12.19.23.34h0a.94.94,0,0,0,.76.4.35.35,0,0,1,.18,0,.71.71,0,0,0,.25.14h.2a0,0,0,0,0,0,0,1.23,1.23,0,0,0,0-.18A.4.4,0,0,1,1.63,3a1.2,1.2,0,0,1,.24-.52.35.35,0,0,1,.44,0,.79.79,0,0,1,.23.88s-.2.36-.41.36a.23.23,0,0,1-.21-.07l-.14,0s0,0,0,0V3.7a.15.15,0,0,0,0,.09.12.12,0,0,1,0,.15.28.28,0,0,0-.07.29s.12.51.54.51ZM2.08,1.25a.63.63,0,0,1-.57.27s.09-.38.57-.27ZM1,1.61c.14-.05.15,0,.15,0s-.07.09-.07.09a3.45,3.45,0,0,0-.69.58c-.06.06-.09,0-.09,0a.09.09,0,0,1,0-.13,4,4,0,0,1,.7-.6Z"/><path class="cls-1" d="M8.45,3.16A1.56,1.56,0,0,0,8.29,5c-2.08-.07-2.68.51-2.68.51A1.51,1.51,0,0,0,5,7.25c.58.92,1.26.27,1.26.27-1,.2-1-.66-1-.66.21-1.48,2.14-1.41,2.14-1.41a31.05,31.05,0,0,1,4.24.46A7.08,7.08,0,0,1,9.11,5c-.82-.5-.66-1.82-.66-1.82Z"/></g></g></svg>