<svg xmlns="http://www.w3.org/2000/svg" viewBox="0 0 33.11 7.79"><g id="Capa_2" data-name="Capa 2"><g id="Capa_1-2" data-name="Capa 1"><path d="M19.21,6.91q0,.09.06.09l.08,0L29.66.27a1,1,0,0,1,.59-.18h2.27a.55.55,0,0,1,.59.58V5a1.08,1.08,0,0,1-.59,1.1L29.77,7.75l-.09,0s-.06,0-.06-.12V2.61s0-.09-.06-.09l-.08,0-7.54,4.9a1,1,0,0,1-.58.18h-5A.55.55,0,0,1,15.78,7V.81c0-.05,0-.09-.06-.09a.13.13,0,0,0-.08,0l-5,3c-.05,0-.07.06-.07.08s0,0,.05.07L14.2,7.44c.05,0,.08.09.08.12s0,.07-.11.07H11a.77.77,0,0,1-.58-.18L8.21,5.29l-.06,0-.07,0L4.48,7.45a1,1,0,0,1-.58.17H.58A.55.55,0,0,1,0,7V2.79a1.07,1.07,0,0,1,.58-1.1L3.35,0l.07,0s.07.05.07.14V5.82c0,.06,0,.09,0,.09a.12.12,0,0,0,.08,0L13,.25a1,1,0,0,1,.62-.17h5a.55.55,0,0,1,.58.58V6.91Z"/></g></g></svg>