<?xml version="1.0" encoding="utf-8"?>
<!-- Generator: Adobe Illustrator 25.2.3, SVG Export Plug-In . SVG Version: 6.00 Build 0)  -->
<svg version="1.1" id="Capa_1" xmlns="http://www.w3.org/2000/svg" xmlns:xlink="http://www.w3.org/1999/xlink" x="0px" y="0px"
	 viewBox="0 0 41.5 14.4" style="enable-background:new 0 0 41.5 14.4;" xml:space="preserve">
<style type="text/css">
	.st0{fill:#343434;}
</style>
<g id="layer1" transform="translate(2.9476594e-5,-4.0385895e-5)">
	<path id="path2556" class="st0" d="M8.9,2.7c-1,0-2,0.5-2,0.5S6,3.8,5.6,4.7c0,0.1-1.9,3.8-1.9,3.8C1.2,7.8,0,9.2,0.1,9.7
		c0.6,1.5,3.5,0.4,3.8,0.1c0.2-0.1,0.3,0,0.3,0s0.7,0.5,0.8,0.5c0.1,0,0.5,0,0.5,0c0.3,0,0.9-0.6,0.9-0.6c0.1,0,0.2,0.7,0.7,0.7
		C7.5,10.5,8,9.9,8,9.9c0.1-0.1,0.1,0,0.1,0c0,0.6,0.5,0.5,0.7,0.5c0.5-0.2,1.8-1.4,1.6-1.1c0,0.1-0.4,0.8-0.4,0.8
		c0,0.2,0.1,0.2,0.1,0.2l0.9,0c0.2-0.1,0.9-1.8,0.8-1.5C12.1,8.2,12.7,8,12.7,8c0.1,0,0,0.1,0,0.1l-1,2.1c0,0.1,0.1,0.1,0.1,0.1
		l0.9,0c0.1,0,0.9-1.6,0.9-1.6c0.2-0.4,0.9-0.6,0.9-0.6c0.1,0,0,0.1,0,0.1l-0.7,1.5c-0.1,0.7,0.5,0.7,0.7,0.7c0.2,0,0.6-0.2,1.4-0.8
		c0.2-0.1,0.2,0,0.2,0c0,0.8,0.9,0.7,0.9,0.7c0.3,0.1,1.4,0,2.3-1.8c-0.3,1.3,0.4,1.6,0.4,1.7c0,0,0.4,0.2,0.5,0.1
		c1.4,0.1,2-2.1,2-2.1C22.7,8,22.8,7.9,23,7.9c0.3,0,0.4,0,0.6,0.1c0.1,0,0,0.2,0,0.2c-1.5,1.1-0.8,2-0.8,2c0.6,0.9,2-0.6,2.2-0.7
		c0.3,1.3,1.3,0.7,1.3,0.7c-0.1,0.3-0.3,0.9-0.5,1.3c-0.4,0.6-1.1-0.1-1.1-0.1l-0.2,0c-0.1,0.1,0,0.2,0,0.2c0.2,0.3,0.4,0.7,1.1,0.8
		c0.7,0,1.2-0.8,1.2-0.8s1-1.9,1.1-2.1c0.3-0.3,0.9-0.7,1.3-1c0.3-0.1-0.7,1.4-0.7,1.7c0,0.1,0,0.1,0,0.1s0.7,0,0.8,0
		c0.1,0,0.8-1.6,1-1.9C30.4,8.1,31,7.8,31,7.8c0.1,0,0.1,0.1,0.1,0.1l-0.9,1.7c-0.2,0.7,0.4,0.7,0.5,0.7c0.3,0,1.3-0.6,1.3-0.6
		c0.1-0.1,0.1,0.1,0.1,0.1c0,0.2,0.2,0.6,0.4,0.6c0.7,0.1,1.9-1.2,1.9-1.1c0,0-0.4,0.9-0.4,0.9c0,0.1,0.1,0.1,0.1,0.1
		c0,0,0.7,0,0.9,0c0.2,0,1-1.9,1.1-2C36.6,8,37,8,37,8c0.1,0-0.7,1.4-0.8,1.6c-0.2,0.8,0.4,0.8,0.4,0.8c0.4,0.1,1.5-0.7,1.6-0.6
		c0.1-0.1,0.1,0,0.1,0v0.1c0.1,0.6,0.4,0.6,0.4,0.6c0.4,0.1,2.1-1.3,2.1-1.3l-0.3-0.3l-1,0.8c-0.1,0-0.1-0.1-0.1-0.1l1.2-2.3
		c0.1-0.1,0-0.1,0-0.1h-1.1c-0.1,0.1-0.1,0.1-0.1,0.1l-1,1.9l-1,0.5c-0.1,0-0.1-0.1-0.1-0.1s0.9-1.7,0.9-2c0-0.1,0-0.3,0-0.3
		c-0.3-0.7-1.5,0.2-1.6,0.2c0,0,0.1-0.3,0.1-0.3c0-0.1,0-0.1,0-0.1l-1,0c0,0,0-0.1,0,0c0,0.1-0.7,1.2-0.7,1.2l-1.6,1.2
		c-0.1,0-0.1-0.1-0.1-0.1l1.2-2.2l0-0.1l-1.1,0l-0.9,1.8c0,0.1-1,0.6-1,0.6c-0.1,0-0.2-0.1-0.2-0.1l0.9-1.7c0.2-0.6-0.5-0.8-0.9-0.7
		c-0.2,0.1-0.5,0.2-0.5,0.2s-0.1,0,0-0.1C31,7,32.1,4.9,32.1,4.9c0-0.1,0-0.1,0-0.1l-1,0C31,4.8,31,4.9,31,4.9l-1.4,2.6l-1.1,0.9
		c-0.1,0-0.1,0-0.1,0l0.6-1.1V7.2l-1,0l-0.2,0.1C27.6,7,27,7,27,7c-1.2,0-1.9,1.7-1.9,1.7c-0.7,0.6-1,0.8-1.2,0.8
		c-0.2,0-0.2-0.1-0.2-0.1C23.3,8.6,25,7.9,25,7.9c0.1,0,0.3-0.7,0.3-0.7c0,0-2,0-2,0c-0.1,0-0.6,0.5-0.8,0.6
		c-0.5-1.4-2.3-0.3-2.5,0.3c-0.1,0-0.2,0-0.2,0c0-0.5,0-0.8-0.3-0.9c-0.2-0.1-0.8,0-0.8,0l1.1-2.2c0.1-0.1-0.1-0.1-0.1-0.1h-1
		c0,0-0.1,0.1-0.1,0.1s-1.9,3.6-2,3.8C16.4,8.9,15,9.6,15,9.6c0-0.1,0.9-1.7,0.9-2c0-0.8-0.9-0.5-0.9-0.5s-0.5,0.3-1,0.6
		c-0.1-0.9-0.8-0.6-0.8-0.6l-0.8,0.5l0.2-0.4l0-0.2l-1,0c-0.1,0.1-0.3,0.5-0.3,0.5l-0.3,0.6L9.5,9.3C9.4,9.4,9.4,9.2,9.4,9.2
		s1-1.9,1-1.9c0.1,0,0-0.2,0-0.2l-1,0c0,0-0.2,0.3-0.2,0.3C8.8,6.7,7.3,7,6.4,9C6.3,9.1,6.2,9.2,6.2,9.2c-1,1.1-1.5,0-1.5,0l1.7-3.3
		c0,0,0.8-1.8,1.3-2.3c1.3-0.8,1.6-0.1,1.6-0.1C9.4,3.8,9.7,4.7,8,5.2c-0.2,0-0.2,0.1-0.2,0.1C8.4,5.7,9,5.7,9,5.7
		c0.6,0.1,2.2-0.8,1.6-2.2C10.2,2.9,9.5,2.7,8.9,2.7z M34.7,4.9c-0.9,0-0.9,1.2,0,1.4C35.5,6.3,35.7,5,34.7,4.9z M40.8,4.9
		c-1,0-0.9,1.4,0,1.4C41.7,6.2,41.6,4.9,40.8,4.9z M8.8,7.5c0.3,0,0.2,0.3,0.2,0.4c0,0.1-0.5,1-0.5,1C7.9,9.6,7.6,9.5,7.6,9.5
		s-0.2,0-0.1-0.4c0.2-0.3,0.5-1,0.9-1.5C8.6,7.5,8.7,7.5,8.8,7.5z M18.4,7.6c0.3,0,0.2,0.3,0.2,0.3l-0.8,1.6
		c-0.3,0.3-0.5,0.2-0.5,0.2c-0.1-0.1,0.1-0.5,0.1-0.5l0.8-1.5C18.3,7.6,18.4,7.6,18.4,7.6z M27,7.6c0.2,0,0.3,0.2,0.3,0.2s0,0,0,0.2
		c-0.1,0.3-0.8,1.5-0.8,1.5C26.3,9.7,26,9.7,26,9.7c-0.2,0-0.1-0.3-0.1-0.3s0.6-1.2,0.9-1.7C26.9,7.6,27,7.6,27,7.6z M21.4,7.6
		c0.1,0,0.3,0,0.2,0.3c-0.2,0.3-0.8,1.5-0.9,1.7c0,0.1-0.6,0.4-0.5-0.1c0,0,0.9-1.6,0.9-1.7C21.1,7.7,21.3,7.6,21.4,7.6z M2,8.9
		c0.5,0,1,0.2,1,0.2S2.8,9.4,1.7,9.6c-0.5,0-0.8,0-0.8-0.2C1.1,9,1.6,8.9,2,8.9z"/>
</g>
</svg>
