<?xml version="1.0" encoding="utf-8"?>
<!-- Generator: Adobe Illustrator 25.2.3, SVG Export Plug-In . SVG Version: 6.00 Build 0)  -->
<svg version="1.1" id="Capa_1" xmlns="http://www.w3.org/2000/svg" xmlns:xlink="http://www.w3.org/1999/xlink" x="0px" y="0px"
	 viewBox="0 0 51.5 51.5" style="enable-background:new 0 0 51.5 51.5;" xml:space="preserve">
<style type="text/css">
	.st0{fill-rule:evenodd;clip-rule:evenodd;}
	.st1{fill-rule:evenodd;clip-rule:evenodd;fill:#FFFFFF;}
</style>
<g>
	<path class="st0" d="M25.7,50.7c6.7,0,12.9-2.6,17.6-7.3c4.7-4.7,7.3-11,7.3-17.6c0-6.7-2.6-12.9-7.3-17.6s-11-7.3-17.6-7.3
		S12.8,3.4,8.1,8.2s-7.3,11-7.3,17.6s2.6,12.9,7.3,17.6C12.8,48.1,19,50.7,25.7,50.7L25.7,50.7z"/>
	<path class="st1" d="M0.9,25.8c0-6.6,2.6-12.8,7.3-17.5C12.9,3.6,19.1,1,25.7,1s12.8,2.6,17.5,7.3s7.3,10.9,7.3,17.5
		s-2.6,12.8-7.3,17.5s-10.9,7.3-17.5,7.3S12.9,48,8.2,43.3C3.5,38.6,0.9,32.4,0.9,25.8z"/>
	<path class="st0" d="M25.7,49.3c13,0,23.5-10.5,23.5-23.5S38.7,2.3,25.7,2.3c-13,0-23.5,10.5-23.5,23.5S12.7,49.3,25.7,49.3z"/>
	<path class="st1" d="M25.6,39c5.9,0,16.2-2.1,19.8-5.9c3.3-3.6,2-7.1,0.1-9.6L31.8,8.8c-1-1-3.2-2.6-6.2-2.6c-3,0-5.2,1.6-6.2,2.6
		L5.7,23.5c-2.4,2.9-2.9,6.4,0.1,9.6C9.4,36.9,19.6,39,25.6,39z"/>
	<path class="st0" d="M25.6,37.5c5.4,0,14.4-2.3,18-5.4c3.2-2.8,2.5-6.3,0.1-8.7L31.2,10.1c-0.9-0.9-2.9-2.4-5.7-2.4
		c-2.7,0-4.7,1.4-5.7,2.4L7.5,23.4c-2.4,2.4-3.1,5.9,0.1,8.7C11.2,35.2,20.2,37.5,25.6,37.5L25.6,37.5z"/>
	<path class="st1" d="M25.3,27.6c-0.6,0-2.2-0.1-2.7-0.1l-0.4,0.9c-0.2,0.4,0.3,0.5,0.5,0.3c0.2-0.2,1.2-0.7,1.7-0.3v4.5
		c0,0.3-0.3,0.6-0.5,0.6s-0.4,0.1-0.4,0.3c0,0.2,0.1,0.3,0.4,0.3c0.7,0,2.4,0,2.8,0c0.4,0,0.4-0.1,0.4-0.3c0-0.2-0.2-0.3-0.4-0.3
		s-0.5-0.3-0.5-0.6v-4.5c0.5-0.4,1.5,0.1,1.7,0.3c0.2,0.2,0.6,0,0.5-0.3l-0.4-0.9C27.6,27.5,26,27.6,25.3,27.6z M29.1,27.3
		c-0.3,0.1-0.3,0.3-0.3,0.4c0,0.1,0.2,0.2,0.4,0.2s0.4,0.2,0.4,0.4l1,3.5c0.2,0.7,1.5,2,3.9,1c2.5-0.9,1.7-2.8,1.5-3.1l-0.8-2.8
		c-0.1-0.4,0-0.5,0.1-0.7c0.1-0.2,0.1-0.7-0.4-0.5c-0.3,0.1-0.9,0.3-1.1,0.4c-0.2,0.1-0.4,0.5,0,0.6c0.4,0.1,0.5,0.1,0.6,0.4
		l0.8,2.8c0.2,0.8,0.1,1.6-0.9,2c-1,0.4-1.9-0.3-2-0.8l-0.8-2.8c-0.1-0.4-0.1-0.7,0.2-0.8c0.2-0.1,0.3-0.8-0.2-0.7
		C31,26.9,29.4,27.3,29.1,27.3L29.1,27.3z M19.1,26.5c-1.2-0.7-3.5-0.8-4.7,1.2c-1.2,2.1-0.4,3.9,1.7,4.9c2.7,1.3,4.2-0.6,4.6-1.4
		C21.3,29.8,21.6,27.9,19.1,26.5L19.1,26.5z"/>
	<path class="st0" d="M18.6,27.3c-1-0.4-1.9,0-2.6,1.3c-0.7,1.3-0.6,2.7,0.2,3.1c0.8,0.4,1.8,0.4,2.7-1.3
		C19.8,28.8,19.5,27.8,18.6,27.3L18.6,27.3z"/>
	<path class="st1" d="M11.5,22.8c-0.2-0.2-0.4-0.2-0.5,0c-0.1,0.1,0,0.3,0.1,0.5c0.1,0.2,0.3,0.5,0.1,0.8l-2.6,3.4
		c-0.2,0.2-0.5,0.2-0.8,0c-0.2-0.2-0.7,0.1-0.3,0.4c0.4,0.3,3.4,2.5,4.4,2.9l1.1-1c0.2-0.2,0-0.5-0.3-0.3c-0.9,0.6-2.2,0.3-2.7-1
		l2.6-3.3c0.1-0.1,0.4-0.4,0.8-0.3c0.2,0.1,0.3,0,0.4-0.1c0.1-0.1,0.1-0.3-0.1-0.4C13.4,24.2,11.7,23,11.5,22.8L11.5,22.8z
		 M40.6,23.3c-0.3,0.2-0.8,0.2-1.2,0.3c-0.4,0.1-1.2,0.3-1.7,0.6c-0.5,0.3-1.7,1.5-1,2.9c0.4,0.7,1.3,1.2,3.2,0.6
		c0.7-0.2,1.8-0.5,2-0.1c0.2,0.5-0.3,1.2-1.1,1.5c-0.8,0.3-2,0.3-2.5,0c-0.2-0.1-0.6,0-0.4,0.3l0.7,0.9c0.9,0,2.2-0.3,3-0.7
		c0.8-0.4,2.3-1.7,1.6-3.2c-0.7-1.5-2.2-1.1-2.5-1c-0.3,0.1-2.8,0.9-3,0.3c-0.2-0.6,0.5-1.2,1.1-1.4c0.6-0.2,1.7-0.2,2.1-0.1
		c0.4,0.1,0.5-0.1,0.3-0.4L40.6,23.3L40.6,23.3L40.6,23.3z M31.5,22.3c-0.6,0.5-2.4,1.8-4.7,1.8c-2.2,0-5.9-0.6-6.6-5.2l0.7-1H22
		c0,0.1,0,0.1,0,0.2c0,1.8,1.1,2.9,2.4,3.2v0.1c0,0.5-0.3,0.6-0.6,0.6c-0.3,0-0.3,0.5,0.1,0.5h4.3c1.4,0,2.9-0.8,2.9-2.5
		c0-1.7-1.3-2.3-2-2.6c0.4-0.1,1.3-0.5,1.3-1.6S29,14,28,14h-6c-0.3,0-0.3,0.1-0.3,0.2c0,0.1,0.1,0.2,0.2,0.2c0,0.1,0.1,0.2-0.1,0.5
		l-1.7,2.6l0,0c0-5.7,5-5.7,5.7-5.8c0.7,0,3.3,0.3,5.2,1.4c0.6,0.4,0.6,0,0.5-0.2c-0.2-0.4-0.7-1.3-0.9-1.6
		c-0.2-0.3-0.7-0.4-0.9-0.2c-0.1,0.2-0.3,0.4-0.9,0.2c-0.5-0.2-2-0.5-3.9-0.5c-1.6,0-6.8,1.4-6.8,6.6c0,0.9,0.1,1.7,0.3,2.5
		l-0.9,1.3c-0.6,0.9-1.3,0.9-1.7,0.9c-0.4,0-0.4,0.5-0.1,0.5h2.7c0.4,0,0.3-0.5,0.1-0.6c-0.2-0.1-0.4-0.3-0.2-0.5l0.4-0.6
		c1.4,3.1,4.5,4.5,7.5,4.3c2.5-0.1,4.6-1.1,5.8-2.5C32.7,22.3,32.1,21.8,31.5,22.3L31.5,22.3z"/>
	<path class="st0" d="M23,18.2c0-0.1,0-0.2,0-0.3h1.4v2.5C23.7,20.1,23,19.5,23,18.2z M24.4,17.1h-1.2c0.2-0.8,0.7-1.2,1.2-1.4V17.1
		z M23,14.7h1c0.4,0,0.4,0.4,0.4,0.5v0c-0.8,0.2-1.8,0.7-2.2,1.9h-0.8L23,14.7L23,14.7z M27.5,17.1c0.7,0,1.2-0.5,1.2-1.2
		c0-0.7-0.5-1.2-1.2-1.2h-1.7v2.4L27.5,17.1z M25.8,17.9h1.1c0.7,0,2.5,0.3,2.5,2.1s-1.7,2.1-2.4,2.1c-0.7,0-1.2,0-1.2-0.7V17.9z"/>
</g>
</svg>
