<?xml version="1.0" encoding="utf-8"?>
<!-- Generator: Adobe Illustrator 25.2.3, SVG Export Plug-In . SVG Version: 6.00 Build 0)  -->
<svg version="1.1" id="Capa_1" xmlns="http://www.w3.org/2000/svg" xmlns:xlink="http://www.w3.org/1999/xlink" x="0px" y="0px"
	 viewBox="0 0 51.5 51.5" style="enable-background:new 0 0 51.5 51.5;" xml:space="preserve">
<style type="text/css">
	.st0{fill:#343434;}
</style>
<path class="st0" d="M48.8,29.8c-0.4,0-0.7,0-1.1,0c0-0.1,0.1-0.1,0.1-0.2c0.2-0.4,0.4-0.5,0.8-0.5c0.2,0,0.4,0,0.6,0
	C49,29.4,48.9,29.6,48.8,29.8z M47.7,32.2c0.3-0.7,0.7-1.3,1-2c-0.4,0-0.7,0-1.1,0c-0.3,0.6-0.6,1.2-0.9,1.7
	c-0.1,0.2-0.2,0.3-0.5,0.3c-0.9,0-1.8,0-2.7,0c0.4-0.7,0.7-1.4,1.1-2.2c0.2-0.3,0.2-0.3,0.6-0.3c0.1,0,0.2,0,0.3,0
	c0.3,0,0.5-0.1,0.6-0.3c0.1-0.1,0.1-0.2,0.1-0.3c-0.4,0-0.8,0-1.1,0c0.2-0.3,0.3-0.7,0.5-1c-0.2,0-0.5,0-0.7,0
	c-0.3,0-0.5,0.1-0.6,0.3c-0.1,0.2-0.2,0.4-0.3,0.7c-0.2,0-0.4,0-0.6,0c-0.1,0.2-0.2,0.4-0.3,0.6c0.2,0,0.4,0,0.6,0
	c-0.1,0.2-1,2-1.1,2.2c-0.1,0.2-0.2,0.3-0.5,0.3c-0.8,0-1.6,0-2.4,0c0.4-0.8,0.8-1.5,1.3-2.3c-0.3,0-0.6,0-0.9,0
	c-0.2,0-0.3,0.1-0.4,0.2c0-0.2-0.1-0.2-0.2-0.2c-0.2,0-0.4,0-0.6,0c-1,0-1.5,0.3-2,1.1c-0.2,0.3-0.3,0.6-0.5,0.9
	c-0.1,0.2-0.2,0.3-0.5,0.3c-0.5,0-1,0-1.5,0c-0.6,0-0.8-0.1-0.8-0.4c-0.1-0.3,0.1-0.6,0.8-1.1c0.1-0.1,0.3-0.2,0.4-0.3
	c0.2-0.1,0.3-0.2,0.2-0.3c0-0.1-0.1-0.3-0.7-0.3c-1,0-1.9,0-2.9,0c-0.3,0-0.4,0.1-0.6,0.3c-0.3,0.6-0.6,1.1-0.9,1.7
	c-0.1,0.2-0.2,0.3-0.5,0.3c-1.5,0-3.1,0-4.6,0c0.1-0.2,0.1-0.4,0.2-0.6c0.8,0,1.5,0,2.3,0c0.5,0,0.6-0.1,0.8-0.5
	c0.1-0.2,0.1-0.3,0.2-0.5c0.1-0.1,0.1-0.3,0-0.5c-0.1-0.2-0.4-0.2-0.8-0.2c-0.7,0-1.5,0-2.2,0c-0.7,0-1,0.2-1.3,0.8
	c-0.2,0.4-0.3,0.7-0.5,1.1c-0.2,0.4-0.4,0.4-0.7,0.4c-0.5,0-1,0-1.6,0c0-0.1,0.1-0.1,0.1-0.1c0.3-0.5,0.3-1-0.2-1.4
	c-0.4-0.4-1-0.6-1.4-0.7c-0.4,0-0.8,0-1.2,0c-0.3,0.5-0.6,1-0.8,1.5c-0.3,0.6-0.7,0.8-1.4,0.8c-0.5,0-1,0-1.5,0
	c0.4-0.8,0.8-1.5,1.3-2.3c-0.3,0-0.6,0-0.9,0c-0.2,0-0.3,0.1-0.4,0.2c0-0.2-0.1-0.2-0.2-0.2c-0.2,0-0.4,0-0.6,0c-1,0-1.5,0.3-2,1.1
	c-0.2,0.3-0.3,0.6-0.5,0.9c-0.1,0.2-0.2,0.3-0.5,0.3c-0.7,0-1.5,0-2.3,0c0.6-1.2,1.3-2.3,1.9-3.5c0.1-0.2,0-0.5-0.3-0.5
	c-3,0-6,0-9,0c-0.6,0-0.9,0.2-1.2,0.6c1.3,0,2.6,0,3.9,0c-0.7,1.3-1.4,2.6-2.2,4c0.4,0,0.7,0,1.1,0c0.7-1.3,1.4-2.6,2.2-4
	c0.5,0,1,0,1.6,0c-0.7,1.3-1.4,2.6-2.2,4c0.4,0,0.7,0,1.1,0c0.7-1.3,1.4-2.6,2.2-4c0.5,0,1,0,1.6,0C9,30,8.4,31.1,7.8,32.2
	c-0.1,0.2-0.2,0.4-0.1,0.5c0.1,0.1,0.3,0.2,0.5,0.2c1,0,2,0,2.9,0c0.1,0,0.2-0.1,0.3-0.2c0,0.1,0.1,0.2,0.2,0.2c1.7,0,3.4,0,5.1,0
	c1,0,1.5-0.3,2-1.1c0.2-0.4,0.4-0.8,0.7-1.2c0,0,0.1,0,0.1,0c0.8,0.2,1.2,0.5,1.2,0.9c0,0.2,0,0.4-0.2,0.5c-0.1,0.2-0.4,0.3-0.6,0.3
	c-0.5,0-0.7,0.2-0.9,0.6c1.4,0,2.9,0,4.3,0c0.1,0,0.2-0.1,0.3-0.2c0,0.1,0.1,0.2,0.2,0.2c2.1,0,4.2,0,6.3,0c0.4,0,0.6-0.1,0.8-0.5
	c0.2-0.5,0.5-0.9,0.7-1.4c0.2-0.3,0.4-0.4,0.7-0.4c0.4,0,0.7,0,1.1,0c-0.2,0.1-0.4,0.3-0.6,0.5c-0.2,0.2-0.4,0.5-0.5,0.9
	c0,0.3,0,0.5,0.2,0.7c0.1,0.2,0.4,0.2,0.6,0.2c0.9,0,1.7,0,2.6,0c0.1,0,0.2-0.1,0.3-0.2c0,0.1,0.1,0.2,0.2,0.2c1.8,0,3.7,0,5.5,0
	c0.1,0,0.2-0.1,0.3-0.2c0,0.1,0.1,0.2,0.2,0.2c2.7,0,5.4,0,8.1,0c0.5,0,0.7-0.2,0.8-0.5c0,0,0-0.1,0-0.1
	C50.2,32.2,48.9,32.2,47.7,32.2z M25.4,30.9c0.1-0.3,0.4-0.3,0.6-0.3c0.4,0,0.8,0,1.3,0c0,0.1-0.1,0.2-0.1,0.3
	c-0.1,0.3-0.3,0.3-0.5,0.3c-0.4,0-0.9,0-1.3,0C25.4,31,25.4,31,25.4,30.9z M14.1,31.8c-0.2,0.3-0.4,0.4-0.7,0.4c-0.2,0-0.4,0-0.6,0
	c0.2-0.4,0.4-0.8,0.7-1.2c0.2-0.3,0.4-0.4,0.7-0.4c0.2,0,0.4,0,0.6,0C14.5,31,14.3,31.4,14.1,31.8z M38.9,31.8
	c-0.2,0.3-0.4,0.4-0.7,0.4c-0.2,0-0.4,0-0.6,0c0.2-0.4,0.4-0.8,0.7-1.2c0.2-0.3,0.4-0.4,0.7-0.4c0.2,0,0.4,0,0.6,0
	C39.3,31,39.1,31.4,38.9,31.8z M24.9,25.8c0-0.2,0-0.4,0-0.6c0.5,0,1,0,1.4,0l0,0c0.5,0,1,0,1.4,0c0,0.2,0,0.4,0,0.6
	c-0.5,0-1,0-1.4,0l0,0C25.9,25.8,25.4,25.8,24.9,25.8z M26.4,27c0.3,0,0.6,0,0.9,0c0-0.3,0-0.6,0-0.9c-0.3,0-0.6,0-0.9,0l0,0
	c-0.3,0-0.6,0-0.9,0c0,0.3,0,0.6,0,0.9C25.8,27,26.1,27,26.4,27 M25.5,25c0-0.5-0.1-1-0.5-1.3c0.5,0,0.9,0,1.4,0l0,0
	c0.5,0,0.9,0,1.4,0c-0.4,0.3-0.5,0.8-0.5,1.3c-0.3,0-0.6,0-0.9,0l0,0C26.1,25,25.8,25,25.5,25z M23.1,22.8c0-0.1,0-0.3,0-0.4
	c1.1,0,2.2,0,3.3,0l0,0c1.1,0,2.2,0,3.3,0c0,0.1,0,0.3,0,0.4c-1.1,0-2.2,0-3.3,0l0,0C25.3,22.8,24.2,22.8,23.1,22.8z M23.4,24.3
	c0.4-0.1,0.8-0.3,1.1-0.6c-0.4,0-0.8,0-1.1,0C23.3,23.9,23.3,24.1,23.4,24.3z M29.4,24.3c-0.4-0.1-0.8-0.3-1.1-0.6
	c0.4,0,0.8,0,1.1,0C29.4,23.9,29.4,24.1,29.4,24.3z M23,21.5c-0.4-2.1-1.1-4.4-1.8-5.9c0.8,0.5,1.7,1.2,2.7,2.1
	c-0.4-0.1-0.8-0.2-1.2-0.2c0.6,1.3,1,2.6,1.4,4C23.7,21.5,23.3,21.5,23,21.5z M29.8,21.5c0.4-2.1,1.1-4.4,1.8-5.9
	c-0.8,0.5-1.7,1.2-2.7,2.1c0.4-0.1,0.8-0.2,1.2-0.2c-0.6,1.3-1,2.6-1.4,4C29.1,21.5,29.4,21.5,29.8,21.5z M22.7,22.2
	c0-0.1,0-0.3,0-0.4c1.2,0,2.4,0,3.7,0l0,0c1.2,0,2.4,0,3.7,0c0,0.1,0,0.3,0,0.4c-1.2,0-2.4,0-3.7,0l0,0
	C25.2,22.2,23.9,22.2,22.7,22.2z M25.1,15.4c0.6-1,1-2.1,1.2-3.2c0.2,1.1,0.7,2.2,1.2,3.2c-0.2-0.1-0.4-0.2-0.6-0.3
	c-0.2-0.1-0.3,0-0.3,0.2c0.1,2.1,0.4,4.4,1.4,6.2c-0.4,0-0.8,0-1.3,0c-0.2-0.5-0.4-0.9-0.5-1.4c-0.1,0.5-0.3,0.9-0.5,1.4
	c-0.4,0-0.8,0-1.3,0c1.1-1.8,1.4-4.1,1.4-6.2c0-0.2-0.1-0.3-0.3-0.2C25.6,15.2,25.3,15.3,25.1,15.4z M22.7,23.4c0-0.1,0-0.3,0-0.4
	c1.2,0,2.4,0,3.7,0l0,0c1.2,0,2.4,0,3.7,0c0,0.1,0,0.3,0,0.4c-1.2,0-2.4,0-3.7,0l0,0C25.2,23.4,23.9,23.4,22.7,23.4z"/>
</svg>
