<svg xmlns="http://www.w3.org/2000/svg" viewBox="0 0 23.1 18.68"><defs><style>.cls-1{fill:#010202;fill-rule:evenodd;}</style></defs><g id="Capa_2" data-name="Capa 2"><g id="Capa_1-2" data-name="Capa 1"><path class="cls-1" d="M7.52,9.21a7.1,7.1,0,0,1,4,4.09c1.07-2.32,2.21-3.5,4-4.24l4.54-1.62,0,.11a13.77,13.77,0,0,1,.11,1.77c0,6.41-4.24,7.7-8.7,7.66S2.87,15.73,2.87,9.32A7.32,7.32,0,0,1,3,8L3,7.69,7.52,9.21ZM19.11,4.77,19,4.61c-1.58-2.36-4.46-2.92-7.48-2.92s-6,.59-7.51,3L3.85,5c2.66,1.52,5.67,1.54,7.68,5.38,1.85-3.95,4.9-4,7.58-5.58Zm2.15-1.38L21,3.09C18.64.55,14.77,0,11.53,0S4.27.55,2,3.24l-.11.15A9,9,0,0,0,0,9.32c0,8.07,6.56,9.36,11.53,9.36S23.1,17.39,23.1,9.32a9,9,0,0,0-1.84-5.93Z"/></g></g></svg>