<?xml version="1.0" encoding="utf-8"?>
<!-- Generator: Adobe Illustrator 25.2.3, SVG Export Plug-In . SVG Version: 6.00 Build 0)  -->
<svg version="1.1" id="Capa_1" xmlns="http://www.w3.org/2000/svg" xmlns:xlink="http://www.w3.org/1999/xlink" x="0px" y="0px"
	 viewBox="0 0 41.5 14.4" style="enable-background:new 0 0 41.5 14.4;" xml:space="preserve">
<style type="text/css">
	.st0{fill:#343434;}
</style>
<path id="path1961" class="st0" d="M32.9,6.9c5.7-3.7,13.4-3.8,4.4,2.2l0.1-0.2c2.5-3.5-2.6-2.7-4.4-2L32.9,6.9z M12.1,9.5h2.4v0.9
	h-2.8c-1.2,0-1.7-0.4-1.7-1.3V9c0-0.8,0.5-1.3,1.7-1.3h2.8v0.9h-2.4c-0.2,0-0.4,0.2-0.4,0.4v0.1C11.7,9.4,11.9,9.5,12.1,9.5
	L12.1,9.5z M16.6,7.2v2.4h1.4v0.9h-3.3V7.2H16.6z M7.7,7.6C8,7.3,8.4,7.2,8.8,7.2h0.9v3.3H7.9V8.8l-1.8,1.7H4.3V8.8l-2.1,1.7H0.1
	l3.8-2.8c0.4-0.3,0.6-0.5,1.2-0.5h1.2v1.7L7.7,7.6z M23.7,8c0-0.3,0.2-0.5,0.5-0.5c0,0,0,0,0,0h2.2v0.9h-1.2v2.1h-1.7V8z M34.8,7.4
	c1.4,0,1.9,0.3,1.9,1.3v1.7h-1.7V9.3c0-0.4-0.3-0.7-0.7-0.7h-0.7v1.9H32V7.4H34.8z M21.9,7.4c1.1,0,1.6,0.4,1.6,1.2v0.7
	c0,0.9-0.5,1.2-1.7,1.2h-1.9c-0.7,0-1.2-0.1-1.4-0.3c-0.1-0.2-0.2-0.3-0.2-0.5V9.5c0-0.5,0.3-0.9,1.2-0.9h2.1c0-0.2,0-0.2-0.2-0.2
	h-2.8V7.4L21.9,7.4z M21.6,9.4V9.3h-1.3c-0.1,0-0.1,0.1-0.1,0.1c0,0.1,0.1,0.1,0.1,0.1h1.2C21.5,9.5,21.6,9.5,21.6,9.4z M30.2,7.4
	c1.3,0,1.5,0.4,1.5,0.9v0.1c0,0.6-0.4,0.9-1.2,0.9h-2.1c0,0.2,0.2,0.2,0.5,0.2h2.6v0.9h-3.2c-1,0-1.5-0.4-1.5-1.2V8.7
	c0-0.9,0.5-1.3,1.6-1.3H30.2z M30,8.6c0.1,0,0.1-0.1,0.1-0.1c0-0.1-0.1-0.1-0.1-0.1h-1.4c-0.1,0-0.1,0.1-0.1,0.1v0.1H30z"/>
</svg>
