<svg xmlns="http://www.w3.org/2000/svg" viewBox="0 0 44.65 19.7"><g id="Capa_2" data-name="Capa 2"><g id="Capa_1-2" data-name="Capa 1"><path d="M16.52,12.1h-.84V7.65H17L18.1,11.2l1.12-3.55h1.3V12.1h-.91V8.81l-.95,3.27H17.59L16.52,8.76V12.1Zm5.85,0h-.9V7.65h.9Zm1.91,0h-.9V7.65h1.07l1.74,3.21V7.65h.9V12.1H26L24.29,8.9Zm4.78,0h-.9V7.65h.9Zm6.53,1.63H31.37a7.71,7.71,0,0,0,.51-1.63h5.29l1.41-1.41H32.07c0-.28.06-.57.06-.84A4.06,4.06,0,0,0,32.07,9h8.11l1.4-1.4H31.83A7.71,7.71,0,0,0,31.32,6H43.25l1.4-1.41H30.59A9.79,9.79,0,0,0,14,4.56H0L1.41,6H13.34a13.14,13.14,0,0,0-.58,1.63H3L4.42,9h8.1c0,.29,0,.58,0,.85a4.74,4.74,0,0,0,0,.84H6.05l1.4,1.41h5.29a7.88,7.88,0,0,0,.57,1.63H9.15l1.41,1.41H14.1a9.8,9.8,0,0,0,16.55,0h3.54ZM22.37,18.29a8.39,8.39,0,1,1,8.39-8.38h0a8.39,8.39,0,0,1-8.39,8.38"/></g></g></svg>