<svg xmlns="http://www.w3.org/2000/svg" viewBox="0 0 25.48 21.39"><g id="Capa_2" data-name="Capa 2"><g id="Capa_1-2" data-name="Capa 1"><g id="Global_Logos_Logo-Black-115x116" data-name="Global/Logos/Logo-Black-115x116"><g id="Nissan-Brand-Logo-RGB-B-w_R" data-name="Nissan-Brand-Logo-RGB-B-w R"><path id="Path" d="M3.61,7.7a9.6,9.6,0,0,1,18.27,0v0H24.8V7.38l-1.21-.15a1.18,1.18,0,0,1-1.11-.85l-.05-.1a10.62,10.62,0,0,0-19.38,0l0,.1a1.18,1.18,0,0,1-1.11.85L.68,7.38v.36H3.59Z"/><path id="Path-2" data-name="Path" d="M21.89,13.65v0a9.66,9.66,0,0,1-9.14,6.64h0a9.63,9.63,0,0,1-9.13-6.65l0,0H.68V14l1.21.14A1.19,1.19,0,0,1,3,15l0,.11a10.73,10.73,0,0,0,9.69,6.28h0a10.73,10.73,0,0,0,9.69-6.28l.05-.1a1.17,1.17,0,0,1,1.11-.85L24.8,14v-.36Z"/><rect id="Rectangle" x="5.23" y="9.33" width="0.68" height="2.96"/><polygon id="Path-3" data-name="Path" points="3.64 12.29 3.64 9.33 2.99 9.33 2.99 11.53 0.83 9.33 0 9.33 0 12.29 0.65 12.29 0.65 10.07 2.82 12.29 3.64 12.29"/><path id="Shape" d="M18.29,9.33l-1.91,3h.82l.34-.53h2.23l.34.53h.82L19,9.33Zm1.13,1.87H17.89L18.66,10Z"/><path id="Path-4" data-name="Path" d="M15,11.67H12.15v.61h3a.91.91,0,0,0,0-1.8h-2l-.2,0a.27.27,0,0,1-.2-.26.26.26,0,0,1,.2-.25.62.62,0,0,1,.19,0h2.59v-.6H12.83a.87.87,0,0,0,0,1.73H15a.28.28,0,0,1,.27.28.3.3,0,0,1-.25.3"/><path id="Path-5" data-name="Path" d="M10,11.67H7.14v.61h3a.87.87,0,0,0,.81-.9.86.86,0,0,0-.77-.89.83.83,0,0,0-.22,0H8.13l-.2,0a.25.25,0,0,1-.19-.26.26.26,0,0,1,.2-.25.55.55,0,0,1,.18,0h2.59v-.6H7.82a.87.87,0,0,0,0,1.73H10a.29.29,0,0,1,0,.58"/><polygon id="Path-6" data-name="Path" points="25.48 12.29 25.48 9.33 24.83 9.33 24.83 11.53 22.68 9.33 21.84 9.33 21.84 12.29 22.49 12.29 22.49 10.07 24.66 12.29 25.48 12.29"/></g></g></g></g></svg>