<svg xmlns="http://www.w3.org/2000/svg" viewBox="0 0 32.75 25.46"><g id="Capa_2" data-name="Capa 2"><g id="Capa_1-2" data-name="Capa 1"><path id="Shape" d="M32.48,13.93l-3-.18h-.37v-1A12.71,12.71,0,0,0,4,9.87H1.2a.45.45,0,0,0-.37.19l-.74,1a.32.32,0,0,0-.09.19.29.29,0,0,0,.28.27l3,.19h.37v1a12.71,12.71,0,0,0,25.1,2.86h2.76a.47.47,0,0,0,.37-.18l.74-1a.31.31,0,0,0,.09-.18C32.75,14,32.66,13.93,32.48,13.93ZM16.42,1.38A11.31,11.31,0,0,1,27.68,12.64v.92h0L18.27,13l4.06-2.77c.09,0,.09-.09.09-.18a.2.2,0,0,0-.18-.19H5.63A11.08,11.08,0,0,1,16.42,1.38Zm0,22.52A11.3,11.3,0,0,1,5.17,12.64v-.92l9.41.55L10.52,15c-.09,0-.09.09-.09.18a.2.2,0,0,0,.18.19H27.22A11.17,11.17,0,0,1,16.42,23.9Z"/></g></g></svg>