<svg xmlns="http://www.w3.org/2000/svg" viewBox="0 0 53.22 3.65"><g id="Capa_2" data-name="Capa 2"><g id="Capa_1-2" data-name="Capa 1"><path d="M46.92.69v.8h6.3v.68h-6.3V3h6.3v.68H46.11V0h7.11V.69Zm-2.56.79H39.49V0h-.8V3.64h.8V2.28h4.87V3.64h.8V0h-.8ZM31.14.81v2a.8.8,0,0,0,.8.8h5.82v-.8h-5.7a.12.12,0,0,1-.11-.1V.92a.13.13,0,0,1,.13-.11h5.68V0H32a.81.81,0,0,0-.82.8Zm-1.76.68H24.26a.12.12,0,0,1-.13-.12h0V.82a.13.13,0,0,1,.13-.13h5.81V0H24.12a.8.8,0,0,0-.8.81v.54a.81.81,0,0,0,.81.81h5.12a.12.12,0,0,1,.13.12h0v.54a.12.12,0,0,1-.12.13H23.43v.68h5.95a.8.8,0,0,0,.81-.8h0V2.3a.81.81,0,0,0-.81-.81Zm-7,2.14h-.81V3.5a.81.81,0,0,0-.81-.81H16.31v1h-.8V0h6.07a.81.81,0,0,1,.81.81h0V1.6a.81.81,0,0,1-.77.81,1.36,1.36,0,0,1,.78,1.22ZM21.59,1a.14.14,0,0,0-.14-.14H16.31V1.89h5.15a.15.15,0,0,0,.13-.14h0Zm-7-.14v2h0a.8.8,0,0,1-.8.81H8.61a.81.81,0,0,1-.81-.8h0v-2A.81.81,0,0,1,8.61,0h5.14A.82.82,0,0,1,14.55.81Zm-.8.14a.15.15,0,0,0-.14-.14H8.74a.12.12,0,0,0-.13.11V2.75a.1.1,0,0,0,.1.1h4.91a.14.14,0,0,0,.13-.13ZM6.86.81V1.88a.81.81,0,0,1-.81.81H.8v1H0V0H6.05a.81.81,0,0,1,.81.8ZM6.06,1A.14.14,0,0,0,5.92.81H.8V1.89H5.93a.15.15,0,0,0,.13-.14Z"/></g></g></svg>