<svg id="Capa_1" data-name="Capa 1" xmlns="http://www.w3.org/2000/svg" viewBox="0 0 51.37 40.85"><defs><style>.cls-1{fill:#19191b;}</style></defs><path class="cls-1" d="M20.68,5.19c5.64-.2,11.28,0,16.91.36a14.93,14.93,0,0,1,1.77.17,1.33,1.33,0,0,1,.84.48,3,3,0,0,1,.22,1c.13,1.69.17,3.39.3,5.08a4.42,4.42,0,0,1-.73,0c-4.34-.22-8.69-.41-13-.42-2.25,0-4.51,0-6.76.1a2,2,0,0,0-1.47.75c1.7.3,3.4.62,5.1.93,5.63,1.06,11.28,2.09,16.91,3.14V20c-3.17-.52-6.33-1.09-9.5-1.63C24.42,17.18,17.61,16,10.79,14.83c0-1.19.07-2.37.09-3.56a16.59,16.59,0,0,1,.23-2.82A3.38,3.38,0,0,1,12,6.68a5.25,5.25,0,0,1,3.23-1.2c1.81-.17,3.63-.22,5.44-.29Zm-9.92,11.2q14.66,2.7,29.29,5.45a5,5,0,0,1,.65.13l0,.06c0,1.6-.08,3.2-.14,4.8a6.19,6.19,0,0,1-.65,2.9,3.75,3.75,0,0,1-2.57,1.58,33.71,33.71,0,0,1-4.49.38,171.49,171.49,0,0,1-19.37-.31A8,8,0,0,1,12,31.19a1.15,1.15,0,0,1-.67-.45,3,3,0,0,1-.21-1c-.14-1.87-.21-3.74-.31-5.61,3.33.21,6.66.33,10,.4s6.43.06,9.65.09a2.74,2.74,0,0,0,2-.59c.07-.09.2-.17.19-.31-1.45-.21-2.9-.48-4.34-.72L10.76,20c0-1.21,0-2.41,0-3.61Z" transform="translate(-0.07 -5.11)"/><path class="cls-1" d="M36.66,40.27V42.5H29.58v-.63c0-1,.16-1.62,1.3-1.62h5.78Zm-6.22-1.38c-1.86,0-2.72,1-2.72,2.59V46h1.86V43.89h7.08V46h1.86V38.89Zm10.38,0v1.38H45.2V46h1.86V40.27h4.38V38.89Zm-25,4.34c0,1,.2,1.35,1.3,1.35h7.77V46H16.64c-1.86,0-2.74-.85-2.74-2.43V38.89H24.83v1.38H15.76v1.38h8.7V43h-8.7v.23ZM2.46,41.35c-.58-.05-.67-.25-.67-.59s.17-.51.61-.51H11V38.89H2.18c-1.25,0-2.11.49-2.11,1.88s.64,1.88,2.08,2l7,.58c.54,0,.69.22.69.61s-.15.6-.64.6H.41V46H9.29c1.53,0,2.21-.62,2.21-2.06s-.61-1.85-2.1-2Z" transform="translate(-0.07 -5.11)"/></svg>