<svg xmlns="http://www.w3.org/2000/svg" viewBox="0 0 23.87 23.88"><defs><style>.cls-1{fill-rule:evenodd;}</style></defs><g id="Capa_2" data-name="Capa 2"><g id="Capa_1-2" data-name="Capa 1"><path class="cls-1" d="M11.16,4.93a6.95,6.95,0,1,1-6.28,7.56,7,7,0,0,1,6.28-7.56ZM10.86.61A11.29,11.29,0,1,1,.66,12.9,11.33,11.33,0,0,1,10.86.61Zm0-.56A11.94,11.94,0,1,1,.05,13,12,12,0,0,1,10.83.05Zm3.72,15.89-5.33-.49a1.41,1.41,0,0,0-1.29.35c-.22.12-.93.1-1-.2A2.42,2.42,0,0,0,6,14c-.17-.19-.14-.33.08-.41l1.59.15a1.66,1.66,0,0,1,.66.2l.86.48a.26.26,0,0,0,.39-.24,3.86,3.86,0,0,0-1-2.66,3.33,3.33,0,0,0-.86-.62,2.45,2.45,0,0,0-.81-.25c-.53,0-.84-.11-.92-.23-.33-.24,0-.91.19-1.26A1.62,1.62,0,0,1,7,8.27,6.13,6.13,0,0,1,9,9.26c.26,0,.33-.06.19-.29-.57-.53-1.93-1-1.9-1.27A3.8,3.8,0,0,1,8.87,6.36,1.86,1.86,0,0,1,10,6c.35.12.94.86,1.81,2,.17.23.45,0,.33-.23l-.47-.67c-.5-.65-.92-1.07-.92-1.25.08-.37,1-.41,2.17-.2,2.19,1.61,3,5.18,1.54,8.66a1,1,0,0,0-.08.42c0,.14.08.2.23.2s.21,0,.26-.14a.56.56,0,0,1,0-.38,2.79,2.79,0,0,1,2.1,1.2,3,3,0,0,1-2.12.94.21.21,0,0,1-.17-.16V16.2c0-.14-.07-.23-.2-.26Zm-1.64-3.62a.94.94,0,1,1-.85,1,.94.94,0,0,1,.85-1Zm8.15-4.27L20,8.18l.27.63.83-.76Zm.51-.79.49,1.08-2.55,2.29-.35-1,.53-.48-.39-.93-.72,0-.41-.88,3.4-.16ZM17.5,3.66,16.61,5c.45.38.83.62,1.3-.08S18,4,17.5,3.66ZM17.11,2.6l.92.58c1,.65,1.31,1.39.66,2.33s-1.37.77-2.37.08L15.45,5l1.66-2.4Zm-6.2.26a1.5,1.5,0,0,1,1.68-1.59c.94.05,1.78.27,1.8,1.46s-.68,1.57-1.72,1.59-1.73-.41-1.76-1.46ZM12,2.69c-.07.84.28,1,.62,1s.63-.19.71-.92-.29-1-.65-1c-.54,0-.65.49-.68.85Zm-6.14.48.81-.49L7.33,3.8l.16-1.55,1-.39L8.24,3.42l1.55,1-1,.38L7.43,4l.71,1.18-.83.51L5.85,3.17Zm-1,5.32c1-.69,1.52-1.82.73-2.42s-1.52.65-1.92.6,0-.65.57-1.13l-.38-.32C2.7,6.11,2.47,7.3,3.34,7.7,4,8,4.79,6.78,5,6.85c.6.24-.43,1.18-.58,1.27l.49.37ZM14.89,21a1.21,1.21,0,0,1,.34-1.9,1.28,1.28,0,0,1,1.36.12,1.26,1.26,0,0,1,.05,1.66c-.34.39-1.38.57-1.75.12ZM16,20.65c.28-.14.23-.54.14-.78s-.44-.52-.7-.41-.28.52-.16.79.42.54.72.4ZM12.34,22l-.1-1.6-.55,0,0-.52,1.78-.08,0,.52-.53,0,.1,1.6-.7,0Zm-3.7-2.73.71.22L9,20.57c0,.19-.12.48.15.54s.34-.19.39-.39l.32-1.13.64.17-.32,1.15A.89.89,0,0,1,9,21.55a.87.87,0,0,1-.71-1.18l.32-1.14ZM6.8,18.57,6.1,19l.39.3.31-.77Zm-2,.55L6.68,18l.8.56-.8,2.14-.55-.48.15-.44-.57-.45-.35.25-.56-.47ZM2.42,6.26h.42a1.87,1.87,0,0,1,.32-.53L3,5.31a1.12,1.12,0,0,0-.27.38l.1.18-.25,0a.88.88,0,0,0-.2.37Z"/></g></g></svg>