<svg xmlns="http://www.w3.org/2000/svg" viewBox="0 0 24.44 24.33"><g id="Capa_2" data-name="Capa 2"><g id="Capa_1-2" data-name="Capa 1"><path d="M12.22,24.33,15.64,5.11c3.26,0,4.28.35,4.43,1.81a7.63,7.63,0,0,0,3.29-2.47,24.17,24.17,0,0,0-8.62-2.08L12.21,5.44h0L9.7,2.37A24.2,24.2,0,0,0,1.07,4.45,7.63,7.63,0,0,0,4.36,6.92C4.51,5.46,5.54,5.11,8.77,5.1Z"/><path d="M12.22,1.48A28.16,28.16,0,0,1,23.75,3.79a9.27,9.27,0,0,0,.69-1.41A33.63,33.63,0,0,0,12.22,0,33.6,33.6,0,0,0,0,2.38,12.57,12.57,0,0,0,.68,3.79,28.24,28.24,0,0,1,12.22,1.48Z"/></g></g></svg>