<svg xmlns="http://www.w3.org/2000/svg" viewBox="0 0 26.08 26.08"><defs><style>.cls-1{fill-rule:evenodd;}</style></defs><g id="Capa_2" data-name="Capa 2"><g id="Capa_1-2" data-name="Capa 1"><path class="cls-1" d="M13,26.08A13,13,0,1,0,0,13a13,13,0,0,0,13,13M9.26,18.94c-.08,0-.1-.08-.15-.16l-6-12.1a11.94,11.94,0,0,1,4.24-4l4.33,9.62a.32.32,0,0,0,.32.21h2.08a.32.32,0,0,0,.35-.21l4.33-9.62a12.1,12.1,0,0,1,4.24,4L17,18.78c0,.08-.07.16-.15.16s-.11-.08-.16-.16l-2.27-5.16a.31.31,0,0,0-.34-.21H11.94a.3.3,0,0,0-.33.21L9.42,18.78c0,.08-.08.16-.16.16M13,10.36c-.07,0-.1-.08-.16-.16L9.18,1.86a11.3,11.3,0,0,1,7.72,0L13.2,10.2c-.06.11-.08.16-.16.16m0,14.52A11.87,11.87,0,0,1,1.23,13,11.65,11.65,0,0,1,2,8.9L8.9,22.8a.47.47,0,0,0,.41.34.48.48,0,0,0,.42-.34l3.18-7.12c0-.08.08-.16.16-.16s.1.08.16.16l3.18,7.12a.47.47,0,0,0,.42.34.48.48,0,0,0,.41-.34L24.15,8.9A11.44,11.44,0,0,1,24.91,13,12,12,0,0,1,13,24.88"/></g></g></svg>