<svg xmlns="http://www.w3.org/2000/svg" viewBox="0 0 22.95 22.95"><g id="Capa_2" data-name="Capa 2"><g id="Capa_1-2" data-name="Capa 1"><g id="Volvo_Iron_Mark" data-name="Volvo Iron Mark"><path d="M10.35,12.34h2.79v-.93h-.31a.61.61,0,0,1-.65.62h-.43V10.64h.46v-.31H10.35v.31h.47V12h-.47v.31Z"/><polygon points="14.48 12.34 15.56 12.34 16.48 10.64 16.94 10.64 16.94 10.34 15.55 10.34 15.55 10.64 15.96 10.64 15.29 11.88 14.61 10.64 15.09 10.64 15.09 10.34 13.08 10.34 13.08 10.64 13.54 10.64 14.48 12.34"/><polygon points="4.81 10.34 2.8 10.34 2.8 10.64 3.26 10.64 4.19 12.34 5.28 12.34 6.2 10.64 6.66 10.64 6.66 10.34 5.27 10.34 5.27 10.64 5.67 10.64 5 11.88 4.32 10.64 4.81 10.64 4.81 10.34"/><path d="M6.93,11.34c0,.59.47,1.06,1.43,1.06s1.42-.47,1.42-1.06-.5-1.05-1.43-1.05S6.93,10.76,6.93,11.34Zm1.92,0c0,.36-.16.74-.51.73s-.49-.38-.48-.75.19-.73.51-.72S8.86,11,8.85,11.35Z"/><path d="M17.21,11.34c0,.59.47,1.06,1.43,1.06s1.43-.47,1.43-1.06-.5-1.05-1.44-1.05S17.21,10.76,17.21,11.34Zm1.44-.73c.32,0,.49.35.48.74s-.16.74-.51.73-.49-.38-.48-.75S18.33,10.6,18.65,10.61Z"/><path d="M20.91,5,19.75,6.12A9.81,9.81,0,1,1,16.84,3.2L18,2A11.47,11.47,0,1,0,23,11.47,11.53,11.53,0,0,0,20.91,5Z"/><path d="M17.24.45V.77a12.51,12.51,0,0,1,2,1.33L17.57,3.73a9.6,9.6,0,0,1,1.65,1.66l1.64-1.64a13.36,13.36,0,0,1,1.32,2h.31V.45Z"/></g></g></g></svg>