<svg id="Capa_1" data-name="Capa 1" xmlns="http://www.w3.org/2000/svg" viewBox="0 0 230.02 230.02"><defs><style>.cls-1{fill:#801714;}.cls-2{fill:none;stroke:#fff;stroke-linecap:round;stroke-linejoin:round;stroke-width:3px;}</style></defs><circle class="cls-1" cx="115.01" cy="115.01" r="115.01"/><path class="cls-2" d="M424.7,284.62c0,21.53-15.4,39-28.39,39-11.07,0-28.39-17.45-28.39-39s12.71-32.24,28.39-32.24S424.7,263.09,424.7,284.62Z" transform="translate(-281.26 -191.27)"/><path class="cls-2" d="M412.64,321.86a90.23,90.23,0,0,1-16.33,16.65A90.23,90.23,0,0,1,380,321.86c-18.17,8.77-31.14,28.83-31.14,28.83a136.5,136.5,0,0,0,94.94,0S430.81,330.63,412.64,321.86Z" transform="translate(-281.26 -191.27)"/><path class="cls-2" d="M467,292.82c0,13.19-9.43,23.88-17.39,23.88-6.78,0-17.39-10.69-17.39-23.88s7.78-19.75,17.39-19.75S467,279.63,467,292.82Z" transform="translate(-281.26 -191.27)"/><path class="cls-2" d="M428,324.19a43.73,43.73,0,0,1,11.55-8.56,55.54,55.54,0,0,0,10,10.21,55.54,55.54,0,0,0,10-10.21c11.14,5.38,19.08,17.66,19.08,17.66a86.77,86.77,0,0,1-29.08,5.22,79.37,79.37,0,0,1-9.08-.53S433.17,329.25,428,324.19Z" transform="translate(-281.26 -191.27)"/><path class="cls-2" d="M325.66,292.82c0,13.19,9.44,23.88,17.4,23.88,6.78,0,17.39-10.69,17.39-23.88s-7.79-19.75-17.39-19.75S325.66,279.63,325.66,292.82Z" transform="translate(-281.26 -191.27)"/><path class="cls-2" d="M364.6,324.19a43.84,43.84,0,0,0-11.54-8.56,55.54,55.54,0,0,1-10,10.21,55.4,55.4,0,0,1-10-10.21C321.92,321,314,333.29,314,333.29a86.77,86.77,0,0,0,29.08,5.22,79.37,79.37,0,0,0,9.08-.53S359.44,329.25,364.6,324.19Z" transform="translate(-281.26 -191.27)"/></svg>