<svg id="Capa_1" data-name="Capa 1" xmlns="http://www.w3.org/2000/svg" viewBox="0 0 230.02 230.02"><defs><style>.cls-1{fill:#801714;}.cls-2{fill:none;stroke:#fff;stroke-linecap:round;stroke-linejoin:round;stroke-width:3px;}</style></defs><circle class="cls-1" cx="115.01" cy="115.01" r="115.01"/><polygon class="cls-2" points="126.55 87.05 126.55 57.03 157.26 87.05 126.55 87.05"/><path class="cls-2" d="M352.1,306.89v53.83a2.83,2.83,0,0,0,2.86,2.79h80.7a2.83,2.83,0,0,0,2.86-2.79v-82.4l-30.71-30H355a2.83,2.83,0,0,0-2.86,2.79v20" transform="translate(-281.26 -191.27)"/><line class="cls-2" x1="112.63" y1="152.8" x2="83.09" y2="152.8"/><line class="cls-2" x1="145.02" y1="152.8" x2="129.19" y2="152.8"/><line class="cls-2" x1="94.38" y1="140.08" x2="83.09" y2="140.08"/><line class="cls-2" x1="145.02" y1="140.08" x2="122.47" y2="140.08"/><line class="cls-2" x1="83.53" y1="127.36" x2="82.64" y2="127.36"/><line class="cls-2" x1="145.02" y1="127.36" x2="116.23" y2="127.36"/><line class="cls-2" x1="145.02" y1="114.64" x2="103.51" y2="114.64"/><line class="cls-2" x1="145.02" y1="101.91" x2="92.7" y2="101.91"/><line class="cls-2" x1="119.35" y1="89.19" x2="83.09" y2="89.19"/><line class="cls-2" x1="117.91" y1="76.47" x2="83.09" y2="76.47"/><polygon class="cls-2" points="113.16 131.03 124.08 153.75 102 141.59 38.01 73.92 49.17 63.36 113.16 131.03"/><line class="cls-2" x1="48.56" y1="85.08" x2="59.55" y2="74.69"/><line class="cls-2" x1="52.85" y1="89.62" x2="63.84" y2="79.22"/><polyline class="cls-2" points="102 141.59 105.11 133.69 113.16 131.03"/><line class="cls-2" x1="105.11" y1="133.69" x2="58.6" y2="84.51"/><line class="cls-2" x1="118.16" y1="149.59" x2="120.26" y2="147.61"/></svg>