<?xml version="1.0" encoding="utf-8"?>
<!-- Generator: Adobe Illustrator 25.2.3, SVG Export Plug-In . SVG Version: 6.00 Build 0)  -->
<svg version="1.1" id="Capa_1" xmlns="http://www.w3.org/2000/svg" xmlns:xlink="http://www.w3.org/1999/xlink" x="0px" y="0px"
	 viewBox="0 0 730.8 293.7" style="enable-background:new 0 0 730.8 293.7;" xml:space="preserve">
<style type="text/css">
	.st0{fill:#343434;}
	.st1{fill:#F9B122;}
	.st2{fill:#FFFFFF;}
	.st3{fill:#1D1D1B;}
</style>
<g>
	<g>
		<g>
			<path class="st0" d="M305.6,152.3v-34.1c0-8.4-4.4-16-13-16c-8.5,0-13.5,7.6-13.5,16v34.1h-15.7V88.6h14.6l1.2,7.7
				c3.4-6.5,10.7-8.8,16.8-8.8c7.6,0,15.2,3.1,18.8,11.9c5.7-9,13-11.6,21.3-11.6c18.1,0,27,11.1,27,30.2v34.3h-15.7V118
				c0-8.4-3.5-15.5-12-15.5s-13.8,7.4-13.8,15.7v34.1H305.6z"/>
			<path class="st0" d="M429.3,88.7h15.1v63.6h-14.8l-0.8-9.3c-3.6,7.5-13.5,11.1-20.6,11.2c-18.8,0.1-32.8-11.5-32.8-33.8
				c0-21.9,14.6-33.4,33.2-33.3c8.5,0,16.6,4,20.3,10.3L429.3,88.7z M391.1,120.5c0,12.1,8.4,19.4,18.8,19.4
				c24.8,0,24.8-38.6,0-38.6C399.5,101.2,391.1,108.3,391.1,120.5z"/>
			<path class="st0" d="M514.9,144.2c-7.4,7.2-15.1,10.1-24.5,10.1c-18.4,0-33.8-11.1-33.8-33.7s15.4-33.7,33.8-33.7
				c9,0,16,2.6,23,9.4l-9.9,10.4c-3.7-3.4-8.4-5-12.8-5c-10.6,0-18.3,7.7-18.3,18.8c0,12.1,8.3,18.6,18.1,18.6
				c5,0,10.1-1.4,13.9-5.3L514.9,144.2z"/>
			<path class="st0" d="M537.7,88.7l1.2,7.4c4.9-7.9,11.5-9,17.9-9c6.6,0,12.9,2.6,16.4,6.1l-7.1,13.7c-3.2-2.7-6.2-4.1-11.4-4.1
				c-8.3,0-15.9,4.4-15.9,16.1v33.5h-15.7V88.7H537.7z"/>
			<path class="st0" d="M642.8,120.6c0-18.1-12.9-33-33.1-33.1v0c-0.1,0-0.1,0-0.2,0c-20.3,0-32.9,15-32.9,33.2
				c0,18.3,12.4,33.2,33,33.2c0,0,0,0,0.1,0v0C630.3,153.7,642.8,138.9,642.8,120.6z M609.7,139.3L609.7,139.3
				C609.7,139.3,609.7,139.3,609.7,139.3c-11.5,0-17.3-9-17.3-18.7c0-9.5,5.9-18.8,17.3-18.8c0,0,0,0,0,0v0
				c10.5,0,17.2,9.3,17.2,18.8C626.9,130.3,621.1,139.3,609.7,139.3z"/>
		</g>
		<g>
			<g>
				<path class="st1" d="M289.9,200.8c-3.4,3.3-6.9,4.6-11.2,4.6c-8.4,0-15.4-5.1-15.4-15.4s7-15.4,15.4-15.4
					c4.1,0,7.3,1.2,10.5,4.3l-4.5,4.8c-1.7-1.5-3.8-2.3-5.8-2.3c-4.8,0-8.4,3.5-8.4,8.6c0,5.5,3.8,8.5,8.3,8.5
					c2.3,0,4.6-0.6,6.4-2.4L289.9,200.8z"/>
				<path class="st1" d="M322.6,190c0,8.4-5.7,15.2-15.2,15.2s-15.1-6.8-15.1-15.2c0-8.3,5.8-15.2,15-15.2
					C316.6,174.8,322.6,181.7,322.6,190z M299.5,190c0,4.4,2.7,8.5,7.9,8.5s7.9-4.1,7.9-8.5c0-4.4-3.1-8.6-7.9-8.6
					C302.2,181.4,299.5,185.6,299.5,190z"/>
				<path class="st1" d="M348.9,204.5v-15.2c0-4.4-2.4-7.8-7-7.8c-4.4,0-7.4,3.7-7.4,8.1v14.9h-7.1v-29.1h6.4l0.5,4
					c2.9-2.9,5.9-4.4,9.6-4.4c6.8,0,12.3,5.1,12.3,14.3v15.3H348.9z"/>
				<path class="st1" d="M387.3,200.8c-3.4,3.3-6.9,4.6-11.2,4.6c-8.4,0-15.4-5.1-15.4-15.4s7-15.4,15.4-15.4
					c4.1,0,7.3,1.2,10.5,4.3l-4.5,4.8c-1.7-1.5-3.8-2.3-5.8-2.3c-4.8,0-8.4,3.5-8.4,8.6c0,5.5,3.8,8.5,8.3,8.5
					c2.3,0,4.6-0.6,6.4-2.4L387.3,200.8z"/>
				<path class="st1" d="M397.8,192.5c0.5,3.6,3.6,6.2,8.7,6.2c2.7,0,6.1-1,7.8-2.7l4.6,4.5c-3.1,3.2-8.1,4.7-12.5,4.7
					c-10,0-16-6.2-16-15.5c0-8.8,6-15.2,15.4-15.2c9.7,0,15.8,6,14.7,18H397.8z M413.6,186.6c-0.5-3.8-3.4-5.7-7.5-5.7
					c-3.9,0-7.1,1.9-8.1,5.7H413.6z"/>
				<path class="st1" d="M445,183.2c-2.1-1.9-4.4-2.6-7.2-2.6c-3.4,0-5.3,1.1-5.3,2.9c0,1.9,1.7,2.9,5.4,3.2
					c5.5,0.4,12.4,1.6,12.4,9.3c0,5.1-4.2,9.6-12.5,9.6c-4.6,0-9.2-0.8-13.4-5.2l3.5-5.1c2.1,2.3,6.8,4,10,4.1
					c2.7,0.1,5.2-1.4,5.2-3.5c0-2-1.7-2.8-5.8-3.1c-5.5-0.4-12-2.4-12-9c0-6.7,7-9.1,12.3-9.1c4.5,0,8,0.9,11.3,3.8L445,183.2z"/>
				<path class="st1" d="M462.8,167.2c0,5.6-8.5,5.6-8.5,0C454.3,161.6,462.8,161.6,462.8,167.2z M455,175.3v29.2h7.2v-29.2H455z"/>
				<path class="st1" d="M498.2,190c0,8.4-5.7,15.2-15.2,15.2s-15.1-6.8-15.1-15.2c0-8.3,5.8-15.2,15-15.2
					C492.2,174.8,498.2,181.7,498.2,190z M475.1,190c0,4.4,2.7,8.5,7.9,8.5c5.2,0,7.9-4.1,7.9-8.5c0-4.4-3.1-8.6-7.9-8.6
					C477.8,181.4,475.1,185.6,475.1,190z"/>
				<path class="st1" d="M524.5,204.5v-15.2c0-4.4-2.4-7.8-7-7.8c-4.4,0-7.4,3.7-7.4,8.1v14.9H503v-29.1h6.4l0.5,4
					c2.9-2.9,5.9-4.4,9.6-4.4c6.8,0,12.3,5.1,12.3,14.3v15.3H524.5z"/>
				<path class="st1" d="M561,175.4h6.9v29.1h-6.8l-0.4-4.2c-1.7,3.4-6.2,5.1-9.4,5.1c-8.6,0.1-15-5.2-15-15.4
					c0-10,6.7-15.3,15.2-15.2c3.9,0,7.6,1.8,9.3,4.7L561,175.4z M543.5,189.9c0,5.5,3.8,8.8,8.6,8.8c11.3,0,11.3-17.6,0-17.6
					C547.4,181.2,543.5,184.4,543.5,189.9z"/>
				<path class="st1" d="M580.6,175.4l0.5,3.4c2.2-3.6,5.2-4.1,8.2-4.1c3,0,5.9,1.2,7.5,2.8l-3.2,6.3c-1.5-1.2-2.8-1.9-5.2-1.9
					c-3.8,0-7.3,2-7.3,7.4v15.3h-7.2v-29.1H580.6z"/>
				<path class="st1" d="M607.4,167.2c0,5.6-8.5,5.6-8.5,0C598.9,161.6,607.4,161.6,607.4,167.2z M599.5,175.3v29.2h7.2v-29.2H599.5
					z"/>
				<path class="st1" d="M642.8,190c0,8.4-5.7,15.2-15.2,15.2s-15.1-6.8-15.1-15.2c0-8.3,5.8-15.2,15-15.2S642.8,181.7,642.8,190z
					 M619.7,190c0,4.4,2.7,8.5,7.9,8.5c5.2,0,7.9-4.1,7.9-8.5c0-4.4-3.1-8.6-7.9-8.6C622.4,181.4,619.7,185.6,619.7,190z"/>
			</g>
		</g>
		<g>
			<circle class="st1" cx="160.7" cy="146.8" r="72.7"/>
			<path class="st2" d="M215,126.6l-10.5,10.5c0.7,3.1,1.1,6.4,1.1,9.7c0,24.7-20.1,44.8-44.8,44.8c-3.3,0-6.6-0.4-9.7-1.1
				c-5.9-1.3-11.3-3.7-16.1-7.1c-0.3-0.2-0.6-0.5-1-0.7l15.4-15.4c3.3,1.8,7.2,2.9,11.3,2.9c12.9,0,23.4-10.5,23.4-23.4
				c0-4.1-1-7.9-2.9-11.2l24.8-24.7c-3.1-3.9-6.6-7.4-10.6-10.3c-4.3-3.2-9-5.8-14-7.8c-6.5-2.5-13.5-3.9-20.8-3.9
				c-31.9,0-57.9,26-57.9,57.9c0,7.3,1.4,14.4,3.9,20.8l10.5-10.5c-0.8-3.3-1.2-6.8-1.2-10.4c0-24.7,20.1-44.8,44.8-44.8
				c3.6,0,7,0.4,10.4,1.2c5.5,1.3,10.6,3.6,15.1,6.7c0.4,0.3,0.8,0.6,1.3,0.9L172,126.3c-3.3-1.8-7.2-2.9-11.3-2.9
				c-12.9,0-23.4,10.5-23.4,23.4c0,4.1,1,7.9,2.9,11.3l-15.4,15.4c0,0,0,0,0-0.1l-9.4,9.4c3,3.8,6.4,7.1,10.3,10.1
				c4.5,3.4,9.5,6.2,14.9,8.3c6.3,2.4,13.1,3.6,20.2,3.6c31.9,0,57.9-26,57.9-57.9C218.7,139.7,217.4,132.9,215,126.6z"/>
		</g>
	</g>
</g>
</svg>
