<svg xmlns="http://www.w3.org/2000/svg" viewBox="0 0 534.33 140.05"><defs><style>.cls-1{fill:#fff;}</style></defs><g id="Capa_2" data-name="Capa 2"><g id="Capa_1-2" data-name="Capa 1"><path class="cls-1" d="M209.53,75.31V42.51c0-8.08-4.22-15.41-12.54-15.41s-13.05,7.33-13.05,15.41v32.8H168.78V13.93h14l1.12,7.46c3.23-6.22,10.31-8.45,16.15-8.45,7.33,0,14.66,3,18.14,11.43,5.47-8.7,12.55-11.18,20.5-11.18,17.4,0,26,10.68,26,29.07V75.31H249.54V42.26c0-8.07-3.35-14.91-11.55-14.91s-13.3,7.08-13.3,15.16v32.8Z"/><path class="cls-1" d="M328.7,14.06h14.53V75.31H328.94l-.74-8.94c-3.48,7.2-13.05,10.68-19.88,10.81-18.14.12-31.56-11.06-31.56-32.56,0-21.12,14-32.18,31.93-32,8.2,0,16,3.85,19.51,9.94ZM291.92,44.62c0,11.68,8.07,18.64,18.14,18.64,23.85,0,23.85-37.15,0-37.15C300,26.11,291.92,32.94,291.92,44.62Z"/><path class="cls-1" d="M411.15,67.49c-7.08,7-14.53,9.69-23.6,9.69C369.78,77.18,355,66.49,355,44.75s14.79-32.43,32.56-32.43c8.69,0,15.4,2.48,22.11,9.07L400.1,31.45a18.63,18.63,0,0,0-12.31-4.84c-10.18,0-17.64,7.45-17.64,18.14,0,11.68,8,17.89,17.4,17.89,4.84,0,9.69-1.37,13.42-5.09Z"/><path class="cls-1" d="M433.1,14.06l1.12,7.08c4.72-7.58,11.06-8.7,17.27-8.7s12.43,2.49,15.78,5.84l-6.83,13.17a15.16,15.16,0,0,0-10.94-4c-7.95,0-15.28,4.22-15.28,15.53v32.3H419.06V14.06Z"/><path class="cls-1" d="M534.33,44.75c0-17.46-12.45-31.82-31.83-31.93h-.19c-19.51,0-31.69,14.42-31.69,31.94s11.93,31.93,31.81,31.93h.07C522.32,76.63,534.33,62.36,534.33,44.75Zm-31.87,18h0c-11.05,0-16.65-8.69-16.65-18s5.72-18.14,16.65-18.14h0c10.15,0,16.59,9,16.59,18.14S513.48,62.73,502.46,62.76Z"/><path class="cls-1" d="M194.46,122a14.4,14.4,0,0,1-10.79,4.43c-8.12,0-14.88-4.89-14.88-14.83s6.76-14.82,14.88-14.82a13.3,13.3,0,0,1,10.11,4.15l-4.37,4.6a8.5,8.5,0,0,0-5.63-2.22c-4.65,0-8.06,3.41-8.06,8.29,0,5.34,3.63,8.18,7.95,8.18a8.37,8.37,0,0,0,6.13-2.33Z"/><path class="cls-1" d="M225.92,111.59c0,8.07-5.51,14.6-14.59,14.6s-14.54-6.53-14.54-14.6S202.35,97,211.27,97,225.92,103.59,225.92,111.59Zm-22.2,0c0,4.26,2.55,8.24,7.61,8.24s7.61-4,7.61-8.24-3-8.29-7.61-8.29C206.33,103.3,203.72,107.39,203.72,111.59Z"/><path class="cls-1" d="M251.31,125.56V110.91c0-4.26-2.33-7.49-6.76-7.49-4.26,0-7.15,3.57-7.15,7.83v14.31h-6.88v-28h6.19l.46,3.8c2.84-2.78,5.68-4.2,9.2-4.2,6.59,0,11.87,4.94,11.87,13.75v14.7Z"/><path class="cls-1" d="M288.22,122a14.39,14.39,0,0,1-10.79,4.43c-8.12,0-14.87-4.89-14.87-14.83s6.75-14.82,14.87-14.82a13.29,13.29,0,0,1,10.11,4.15l-4.37,4.6a8.49,8.49,0,0,0-5.62-2.22c-4.66,0-8.07,3.41-8.07,8.29,0,5.34,3.64,8.18,7.95,8.18a8.41,8.41,0,0,0,6.14-2.33Z"/><path class="cls-1" d="M298.33,114c.46,3.46,3.47,6,8.35,6,2.56,0,5.91-1,7.5-2.61l4.43,4.37c-3,3.07-7.78,4.54-12,4.54-9.66,0-15.39-6-15.39-14.93,0-8.52,5.79-14.65,14.88-14.65,9.37,0,15.22,5.79,14.14,17.32Zm15.22-5.74c-.45-3.63-3.29-5.45-7.27-5.45-3.74,0-6.81,1.82-7.83,5.45Z"/><path class="cls-1" d="M343.82,105a9.41,9.41,0,0,0-6.93-2.5c-3.29,0-5.11,1-5.11,2.78s1.65,2.84,5.23,3.07c5.28.34,12,1.53,12,9,0,4.94-4,9.2-12,9.2-4.43,0-8.86-.74-12.95-5l3.41-4.94c2,2.22,6.53,3.86,9.65,3.92,2.62.06,5.06-1.31,5.06-3.35s-1.59-2.73-5.57-3c-5.28-.4-11.58-2.33-11.58-8.69s6.7-8.75,11.81-8.75c4.37,0,7.67.85,10.9,3.69Z"/><path class="cls-1" d="M361,89.67c0,5.4-8.18,5.4-8.18,0S361,84.28,361,89.67Zm-7.56,7.78v28.11h6.93V97.45Z"/><path class="cls-1" d="M395.05,111.59c0,8.07-5.51,14.6-14.6,14.6s-14.53-6.53-14.53-14.6S371.48,97,380.4,97,395.05,103.59,395.05,111.59Zm-22.21,0c0,4.26,2.56,8.24,7.61,8.24s7.61-4,7.61-8.24-2.95-8.29-7.61-8.29C375.46,103.3,372.84,107.39,372.84,111.59Z"/><path class="cls-1" d="M420.44,125.56V110.91c0-4.26-2.33-7.49-6.76-7.49-4.26,0-7.16,3.57-7.16,7.83v14.31h-6.87v-28h6.19l.45,3.8c2.84-2.78,5.68-4.2,9.2-4.2,6.59,0,11.87,4.94,11.87,13.75v14.7Z"/><path class="cls-1" d="M455.53,97.57h6.65v28h-6.53l-.34-4.08c-1.59,3.29-6,4.88-9.09,4.94-8.29,0-14.42-5.06-14.42-14.88,0-9.66,6.41-14.71,14.59-14.65,3.75,0,7.33,1.76,8.92,4.54Zm-16.81,14c0,5.34,3.69,8.52,8.29,8.52,10.91,0,10.91-17,0-17C442.41,103.08,438.72,106.2,438.72,111.54Z"/><path class="cls-1" d="M474.45,97.57l.51,3.23c2.16-3.46,5.05-4,7.89-4a10.57,10.57,0,0,1,7.21,2.67l-3.12,6a6.94,6.94,0,0,0-5-1.82c-3.63,0-7,1.93-7,7.1v14.76H468v-28Z"/><path class="cls-1" d="M500.23,89.67c0,5.4-8.18,5.4-8.18,0S500.23,84.28,500.23,89.67Zm-7.55,7.78v28.11h6.92V97.45Z"/><path class="cls-1" d="M534.3,111.59c0,8.07-5.51,14.6-14.59,14.6s-14.54-6.53-14.54-14.6S510.73,97,519.65,97,534.3,103.59,534.3,111.59Zm-22.2,0c0,4.26,2.55,8.24,7.61,8.24s7.61-4,7.61-8.24-3-8.29-7.61-8.29C514.71,103.3,512.1,107.39,512.1,111.59Z"/><path class="cls-1" d="M70,0a70,70,0,1,0,70,70A70,70,0,0,0,70,0Zm0,125.83A55.58,55.58,0,0,1,36.2,114.38a56.7,56.7,0,0,1-9.88-9.7l9-9,0,.07L50.23,80.88A22.58,22.58,0,0,1,80.88,50.23L95.74,35.37c-.4-.3-.81-.58-1.22-.87A43.16,43.16,0,0,0,28,80L18,90.09a55.78,55.78,0,0,1,85.62-64.64,56.86,56.86,0,0,1,10.19,10L89.83,59.19A22.58,22.58,0,0,1,59.16,89.82L44.31,104.67c.3.23.62.45.93.67A43.15,43.15,0,0,0,112.17,60.7l10.15-10.15A55.8,55.8,0,0,1,70,125.83Z"/></g></g></svg>