<svg id="Capa_1" data-name="Capa 1" xmlns="http://www.w3.org/2000/svg" viewBox="0 0 230.02 230.02"><defs><style>.cls-1{fill:#801714;}.cls-2{fill:none;stroke:#fff;stroke-linecap:round;stroke-linejoin:round;stroke-width:3px;}</style></defs><circle class="cls-1" cx="115.01" cy="115.01" r="115.01"/><path class="cls-2" d="M380.06,227.05a5.5,5.5,0,0,0-11,0v37.44h11Z" transform="translate(-281.26 -191.27)"/><path class="cls-2" d="M399,286.48s9.38-11.76,10.49-13.82c-2.26.64-30.82,17.75-30.82,17.75l16.72,5.8.15,0c-.63.75-8.44,12.27-8.44,12.27l27.36-16.11Z" transform="translate(-281.26 -191.27)"/><path class="cls-2" d="M385.86,336.38v53.27h22V336.37a41.18,41.18,0,0,1-22,0Z" transform="translate(-281.26 -191.27)"/><path class="cls-2" d="M407.85,336.37A41.16,41.16,0,0,0,438,296.71V264.92H355.68v31.79a41.19,41.19,0,0,0,30.18,39.67" transform="translate(-281.26 -191.27)"/><path class="cls-2" d="M424.53,227.05a5.5,5.5,0,0,0-11,0v37.44h11Z" transform="translate(-281.26 -191.27)"/></svg>