<svg id="Capa_1" data-name="Capa 1" xmlns="http://www.w3.org/2000/svg" viewBox="0 0 230.02 230.02"><defs><style>.cls-1{fill:#801714;}.cls-2{fill:none;stroke:#fff;stroke-linecap:round;stroke-linejoin:round;stroke-width:3px;}</style></defs><circle class="cls-1" cx="115.01" cy="115.01" r="115.01"/><path class="cls-2" d="M419.44,323.72a44.21,44.21,0,0,0-.36-5.43l7.3-5-3.23-10-8.83.25a42,42,0,0,0-6.44-8.84l3-8.34-8.47-6.15-7,5.38A41.82,41.82,0,0,0,385,282.25l-2.49-8.46H372l-2.5,8.46a41.82,41.82,0,0,0-10.42,3.38l-7-5.38-8.46,6.15,3,8.34a42,42,0,0,0-6.44,8.84l-8.82-.25-3.24,10,7.31,5a42.32,42.32,0,0,0-.36,5.43,43,43,0,0,0,.36,5.48l-7.31,5,3.24,10,8.85-.25a43,43,0,0,0,6.42,8.81l-3,8.37,8.46,6.15,7-5.41a42,42,0,0,0,10.36,3.35l2.52,8.52h10.46l2.51-8.52a41.74,41.74,0,0,0,10.36-3.35l7,5.41,8.47-6.15-3-8.37a42.23,42.23,0,0,0,6.42-8.81l8.86.25,3.23-10-7.31-5A43,43,0,0,0,419.44,323.72Z" transform="translate(-281.26 -191.27)"/><circle class="cls-2" cx="377.25" cy="323.72" r="33.69" transform="translate(-399.67 170.3) rotate(-45)"/><circle class="cls-2" cx="377.25" cy="323.72" r="26.57" transform="translate(-285.66 450.98) rotate(-80.48)"/><path class="cls-2" d="M461.6,267.08a23.36,23.36,0,0,0-.21-3.15l4.25-2.91-1.88-5.78-5.13.14a24.53,24.53,0,0,0-3.74-5.13l1.73-4.84-4.92-3.57L447.64,245a24.35,24.35,0,0,0-6.05-2l-1.45-4.92h-6.08L432.61,243a24.48,24.48,0,0,0-6.05,2l-4.06-3.12-4.91,3.57,1.72,4.84a24.53,24.53,0,0,0-3.74,5.13l-5.13-.14L408.57,261l4.24,2.91a25.12,25.12,0,0,0-.21,3.15,25.89,25.89,0,0,0,.21,3.19l-4.24,2.91,1.87,5.78,5.15-.15a24.52,24.52,0,0,0,3.73,5.12l-1.73,4.86,4.91,3.57,4.09-3.14a24.39,24.39,0,0,0,6,1.95l1.45,4.95h6.08l1.46-4.95a24.66,24.66,0,0,0,6-1.95l4.08,3.14,4.92-3.57-1.73-4.86a24.52,24.52,0,0,0,3.73-5.12l5.14.15,1.88-5.78-4.25-2.91A24.07,24.07,0,0,0,461.6,267.08Z" transform="translate(-281.26 -191.27)"/><circle class="cls-2" cx="437.1" cy="267.08" r="15.43" transform="translate(-218.13 425.87) rotate(-74.53)"/></svg>